{
	"asset":{
		"generator":"Khronos glTF Blender I/O v4.1.63",
		"version":"2.0"
	},
	"extensionsUsed":[
		"KHR_materials_specular"
	],
	"scene":0,
	"scenes":[
		{
			"name":"Scene",
			"nodes":[
				6,
				7
			]
		}
	],
	"nodes":[
		{
			"mesh":0,
			"name":"Palm_123_Palm_Bark_0"
		},
		{
			"mesh":1,
			"name":"Palm_123_Palm_Leaf_0"
		},
		{
			"mesh":2,
			"name":"Palm_123_Palm_Trunk_0"
		},
		{
			"children":[
				0,
				1,
				2
			],
			"name":"Palm_123"
		},
		{
			"children":[
				3
			],
			"name":"RootNode"
		},
		{
			"children":[
				4
			],
			"name":"Palm_123.fbx",
			"rotation":[
				0.70710688829422,
				0,
				0,
				0.7071066498756409
			],
			"scale":[
				0.009999999776482582,
				0.010000000707805157,
				0.010000000707805157
			]
		},
		{
			"children":[
				5
			],
			"name":"Sketchfab_model",
			"rotation":[
				-0.70710688829422,
				0,
				0,
				0.7071066498756409
			]
		},
		{
			"mesh":3,
			"name":"COL1",
			"scale":[
				0.6241751909255981,
				4.213122844696045,
				0.6241751909255981
			],
			"translation":[
				0,
				4.2318010330200195,
				0
			]
		}
	],
	"materials":[
		{
			"doubleSided":true,
			"extensions":{
				"KHR_materials_specular":{
					"specularFactor":0
				}
			},
			"name":"Palm_Bark",
			"pbrMetallicRoughness":{
				"baseColorTexture":{
					"index":0
				},
				"metallicFactor":0,
				"roughnessFactor":0.6000000238418579
			}
		},
		{
			"alphaCutoff":0.5,
			"alphaMode":"MASK",
			"doubleSided":true,
			"extensions":{
				"KHR_materials_specular":{
					"specularFactor":0
				}
			},
			"name":"Palm_Leaf",
			"pbrMetallicRoughness":{
				"baseColorTexture":{
					"index":1
				},
				"metallicFactor":0,
				"roughnessFactor":0.6000000238418579
			}
		},
		{
			"doubleSided":true,
			"extensions":{
				"KHR_materials_specular":{
					"specularFactor":0
				}
			},
			"name":"Palm_Trunk",
			"normalTexture":{
				"index":2
			},
			"pbrMetallicRoughness":{
				"baseColorTexture":{
					"index":3
				},
				"metallicFactor":0,
				"roughnessFactor":0.6000000238418579
			}
		}
	],
	"meshes":[
		{
			"name":"Palm_123_Palm_Bark_0",
			"primitives":[
				{
					"attributes":{
						"POSITION":0,
						"NORMAL":1,
						"TEXCOORD_0":2
					},
					"indices":3,
					"material":0
				}
			]
		},
		{
			"name":"Palm_123_Palm_Leaf_0",
			"primitives":[
				{
					"attributes":{
						"POSITION":4,
						"NORMAL":5,
						"TEXCOORD_0":6
					},
					"indices":7,
					"material":1
				}
			]
		},
		{
			"name":"Palm_123_Palm_Trunk_0",
			"primitives":[
				{
					"attributes":{
						"POSITION":8,
						"NORMAL":9,
						"TEXCOORD_0":10
					},
					"indices":11,
					"material":2
				}
			]
		},
		{
			"name":"\u7acb\u65b9\u4f53",
			"primitives":[
				{
					"attributes":{
						"POSITION":12,
						"NORMAL":13,
						"TEXCOORD_0":14
					},
					"indices":15
				}
			]
		}
	],
	"textures":[
		{
			"sampler":0,
			"source":0
		},
		{
			"sampler":0,
			"source":0
		},
		{
			"sampler":0,
			"source":1
		},
		{
			"sampler":0,
			"source":2
		}
	],
	"images":[
		{
			"mimeType":"image/png",
			"name":"Image_2",
			"uri":"Image_2.png"
		},
		{
			"mimeType":"image/png",
			"name":"Image_1",
			"uri":"Image_1.png"
		},
		{
			"mimeType":"image/png",
			"name":"Image_0",
			"uri":"Image_0.png"
		}
	],
	"accessors":[
		{
			"bufferView":0,
			"componentType":5126,
			"count":957,
			"max":[
				239.72630310058594,
				1089.3271484375,
				225.48570251464844
			],
			"min":[
				-187.61947631835938,
				629.6884765625,
				-268.88409423828125
			],
			"type":"VEC3"
		},
		{
			"bufferView":1,
			"componentType":5126,
			"count":957,
			"type":"VEC3"
		},
		{
			"bufferView":2,
			"componentType":5126,
			"count":957,
			"type":"VEC2"
		},
		{
			"bufferView":3,
			"componentType":5123,
			"count":3915,
			"type":"SCALAR"
		},
		{
			"bufferView":4,
			"componentType":5126,
			"count":2642,
			"max":[
				399.9651794433594,
				1220.4454345703125,
				425.0002746582031
			],
			"min":[
				-335.8291015625,
				338.70599365234375,
				-458.8280334472656
			],
			"type":"VEC3"
		},
		{
			"bufferView":5,
			"componentType":5126,
			"count":2642,
			"type":"VEC3"
		},
		{
			"bufferView":6,
			"componentType":5126,
			"count":2642,
			"type":"VEC2"
		},
		{
			"bufferView":7,
			"componentType":5123,
			"count":11616,
			"type":"SCALAR"
		},
		{
			"bufferView":8,
			"componentType":5126,
			"count":834,
			"max":[
				61.63724136352539,
				878.371337890625,
				66.9620590209961
			],
			"min":[
				-30.749988555908203,
				0,
				-35.78025817871094
			],
			"type":"VEC3"
		},
		{
			"bufferView":9,
			"componentType":5126,
			"count":834,
			"type":"VEC3"
		},
		{
			"bufferView":10,
			"componentType":5126,
			"count":834,
			"type":"VEC2"
		},
		{
			"bufferView":11,
			"componentType":5123,
			"count":4416,
			"type":"SCALAR"
		},
		{
			"bufferView":12,
			"componentType":5126,
			"count":24,
			"max":[
				1,
				1,
				1
			],
			"min":[
				-1,
				-1,
				-1
			],
			"type":"VEC3"
		},
		{
			"bufferView":13,
			"componentType":5126,
			"count":24,
			"type":"VEC3"
		},
		{
			"bufferView":14,
			"componentType":5126,
			"count":24,
			"type":"VEC2"
		},
		{
			"bufferView":15,
			"componentType":5123,
			"count":36,
			"type":"SCALAR"
		}
	],
	"bufferViews":[
		{
			"buffer":0,
			"byteLength":11484,
			"byteOffset":0,
			"target":34962
		},
		{
			"buffer":0,
			"byteLength":11484,
			"byteOffset":11484,
			"target":34962
		},
		{
			"buffer":0,
			"byteLength":7656,
			"byteOffset":22968,
			"target":34962
		},
		{
			"buffer":0,
			"byteLength":7830,
			"byteOffset":30624,
			"target":34963
		},
		{
			"buffer":0,
			"byteLength":31704,
			"byteOffset":38456,
			"target":34962
		},
		{
			"buffer":0,
			"byteLength":31704,
			"byteOffset":70160,
			"target":34962
		},
		{
			"buffer":0,
			"byteLength":21136,
			"byteOffset":101864,
			"target":34962
		},
		{
			"buffer":0,
			"byteLength":23232,
			"byteOffset":123000,
			"target":34963
		},
		{
			"buffer":0,
			"byteLength":10008,
			"byteOffset":146232,
			"target":34962
		},
		{
			"buffer":0,
			"byteLength":10008,
			"byteOffset":156240,
			"target":34962
		},
		{
			"buffer":0,
			"byteLength":6672,
			"byteOffset":166248,
			"target":34962
		},
		{
			"buffer":0,
			"byteLength":8832,
			"byteOffset":172920,
			"target":34963
		},
		{
			"buffer":0,
			"byteLength":288,
			"byteOffset":181752,
			"target":34962
		},
		{
			"buffer":0,
			"byteLength":288,
			"byteOffset":182040,
			"target":34962
		},
		{
			"buffer":0,
			"byteLength":192,
			"byteOffset":182328,
			"target":34962
		},
		{
			"buffer":0,
			"byteLength":72,
			"byteOffset":182520,
			"target":34963
		}
	],
	"samplers":[
		{
			"magFilter":9729,
			"minFilter":9987
		}
	],
	"buffers":[
		{
			"byteLength":182592,
			"uri":"surfboards.bin"
		}
	]
}
