{
	"asset":{
		"generator":"Khronos glTF Blender I/O v4.1.63",
		"version":"2.0"
	},
	"scene":0,
	"scenes":[
		{
			"name":"Scene",
			"nodes":[
				0,
				1,
				2,
				3,
				4
			]
		}
	],
	"nodes":[
		{
			"mesh":0,
			"name":"chair_04",
			"rotation":[
				0.7071068286895752,
				0,
				0,
				0.7071068286895752
			],
			"translation":[
				0.792395293712616,
				0,
				0
			]
		},
		{
			"mesh":1,
			"name":"chair_04.001",
			"rotation":[
				0.7071068286895752,
				0,
				0,
				0.7071068286895752
			],
			"translation":[
				-0.8624142408370972,
				0,
				0
			]
		},
		{
			"mesh":2,
			"name":"parasol",
			"rotation":[
				0.7071068286895752,
				0,
				0,
				0.7071068286895752
			]
		},
		{
			"mesh":3,
			"name":"picnic_basket",
			"rotation":[
				0.7071068286895752,
				0,
				0,
				0.7071068286895752
			],
			"translation":[
				0,
				0,
				0.7468353509902954
			]
		},
		{
			"mesh":4,
			"name":"COL1",
			"scale":[
				1.458917260169983,
				1,
				1.458917260169983
			],
			"translation":[
				0,
				0.8711333274841309,
				0
			]
		}
	],
	"materials":[
		{
			"doubleSided":true,
			"name":"\u30de\u30c6\u30ea\u30a2\u30eb.002",
			"pbrMetallicRoughness":{
				"baseColorTexture":{
					"index":0
				},
				"metallicFactor":0,
				"roughnessFactor":0.5
			}
		},
		{
			"doubleSided":true,
			"name":"\u30de\u30c6\u30ea\u30a2\u30eb.003",
			"pbrMetallicRoughness":{
				"baseColorTexture":{
					"index":1
				},
				"metallicFactor":0,
				"roughnessFactor":0.5
			}
		},
		{
			"doubleSided":true,
			"name":"\u30de\u30c6\u30ea\u30a2\u30eb.001",
			"pbrMetallicRoughness":{
				"baseColorTexture":{
					"index":2
				},
				"metallicFactor":0,
				"roughnessFactor":0.5
			}
		},
		{
			"doubleSided":true,
			"name":"\u30de\u30c6\u30ea\u30a2\u30eb",
			"pbrMetallicRoughness":{
				"baseColorTexture":{
					"index":3
				},
				"metallicFactor":0,
				"roughnessFactor":0.5
			}
		}
	],
	"meshes":[
		{
			"name":"chair_04",
			"primitives":[
				{
					"attributes":{
						"POSITION":0,
						"NORMAL":1,
						"TEXCOORD_0":2
					},
					"indices":3,
					"material":0
				}
			]
		},
		{
			"name":"chair_04.001",
			"primitives":[
				{
					"attributes":{
						"POSITION":4,
						"NORMAL":5,
						"TEXCOORD_0":6
					},
					"indices":3,
					"material":1
				}
			]
		},
		{
			"name":"parasol",
			"primitives":[
				{
					"attributes":{
						"POSITION":7,
						"NORMAL":8,
						"TEXCOORD_0":9
					},
					"indices":10,
					"material":2
				}
			]
		},
		{
			"name":"picnic_basket",
			"primitives":[
				{
					"attributes":{
						"POSITION":11,
						"NORMAL":12,
						"TEXCOORD_0":13
					},
					"indices":14,
					"material":3
				}
			]
		},
		{
			"name":"\u5186\u67f1",
			"primitives":[
				{
					"attributes":{
						"POSITION":15,
						"NORMAL":16,
						"TEXCOORD_0":17
					},
					"indices":18
				}
			]
		}
	],
	"textures":[
		{
			"sampler":0,
			"source":0
		},
		{
			"sampler":0,
			"source":1
		},
		{
			"sampler":0,
			"source":2
		},
		{
			"sampler":0,
			"source":3
		}
	],
	"images":[
		{
			"mimeType":"image/png",
			"name":"chair_04.png",
			"uri":"textures/chair_04.png"
		},
		{
			"mimeType":"image/png",
			"name":"chair_01.png",
			"uri":"textures/chair_01.png"
		},
		{
			"mimeType":"image/png",
			"name":"parasol.png",
			"uri":"textures/parasol.png"
		},
		{
			"mimeType":"image/png",
			"name":"picnic_basket.png",
			"uri":"textures/picnic_basket.png"
		}
	],
	"accessors":[
		{
			"bufferView":0,
			"componentType":5126,
			"count":632,
			"max":[
				0.3799999952316284,
				1.1566669940948486,
				0
			],
			"min":[
				-0.3799999952316284,
				-0.8083329796791077,
				-0.521947979927063
			],
			"type":"VEC3"
		},
		{
			"bufferView":1,
			"componentType":5126,
			"count":632,
			"type":"VEC3"
		},
		{
			"bufferView":2,
			"componentType":5126,
			"count":632,
			"type":"VEC2"
		},
		{
			"bufferView":3,
			"componentType":5123,
			"count":1644,
			"type":"SCALAR"
		},
		{
			"bufferView":4,
			"componentType":5126,
			"count":632,
			"max":[
				0.3799999952316284,
				1.1566669940948486,
				0
			],
			"min":[
				-0.3799999952316284,
				-0.8083329796791077,
				-0.521947979927063
			],
			"type":"VEC3"
		},
		{
			"bufferView":5,
			"componentType":5126,
			"count":632,
			"type":"VEC3"
		},
		{
			"bufferView":6,
			"componentType":5126,
			"count":632,
			"type":"VEC2"
		},
		{
			"bufferView":7,
			"componentType":5126,
			"count":118,
			"max":[
				1.5099689960479736,
				1.5099689960479736,
				0
			],
			"min":[
				-1.5099689960479736,
				-1.5099689960479736,
				-2.609999895095825
			],
			"type":"VEC3"
		},
		{
			"bufferView":8,
			"componentType":5126,
			"count":118,
			"type":"VEC3"
		},
		{
			"bufferView":9,
			"componentType":5126,
			"count":118,
			"type":"VEC2"
		},
		{
			"bufferView":10,
			"componentType":5123,
			"count":432,
			"type":"SCALAR"
		},
		{
			"bufferView":11,
			"componentType":5126,
			"count":93,
			"max":[
				0.23796400427818298,
				0.1758269965648651,
				-0.0041229999624192715
			],
			"min":[
				-0.23796400427818298,
				-0.18109500408172607,
				-0.42412298917770386
			],
			"type":"VEC3"
		},
		{
			"bufferView":12,
			"componentType":5126,
			"count":93,
			"type":"VEC3"
		},
		{
			"bufferView":13,
			"componentType":5126,
			"count":93,
			"type":"VEC2"
		},
		{
			"bufferView":14,
			"componentType":5123,
			"count":324,
			"type":"SCALAR"
		},
		{
			"bufferView":15,
			"componentType":5126,
			"count":192,
			"max":[
				1,
				1,
				1
			],
			"min":[
				-1,
				-1,
				-1
			],
			"type":"VEC3"
		},
		{
			"bufferView":16,
			"componentType":5126,
			"count":192,
			"type":"VEC3"
		},
		{
			"bufferView":17,
			"componentType":5126,
			"count":192,
			"type":"VEC2"
		},
		{
			"bufferView":18,
			"componentType":5123,
			"count":372,
			"type":"SCALAR"
		}
	],
	"bufferViews":[
		{
			"buffer":0,
			"byteLength":7584,
			"byteOffset":0,
			"target":34962
		},
		{
			"buffer":0,
			"byteLength":7584,
			"byteOffset":7584,
			"target":34962
		},
		{
			"buffer":0,
			"byteLength":5056,
			"byteOffset":15168,
			"target":34962
		},
		{
			"buffer":0,
			"byteLength":3288,
			"byteOffset":20224,
			"target":34963
		},
		{
			"buffer":0,
			"byteLength":7584,
			"byteOffset":23512,
			"target":34962
		},
		{
			"buffer":0,
			"byteLength":7584,
			"byteOffset":31096,
			"target":34962
		},
		{
			"buffer":0,
			"byteLength":5056,
			"byteOffset":38680,
			"target":34962
		},
		{
			"buffer":0,
			"byteLength":1416,
			"byteOffset":43736,
			"target":34962
		},
		{
			"buffer":0,
			"byteLength":1416,
			"byteOffset":45152,
			"target":34962
		},
		{
			"buffer":0,
			"byteLength":944,
			"byteOffset":46568,
			"target":34962
		},
		{
			"buffer":0,
			"byteLength":864,
			"byteOffset":47512,
			"target":34963
		},
		{
			"buffer":0,
			"byteLength":1116,
			"byteOffset":48376,
			"target":34962
		},
		{
			"buffer":0,
			"byteLength":1116,
			"byteOffset":49492,
			"target":34962
		},
		{
			"buffer":0,
			"byteLength":744,
			"byteOffset":50608,
			"target":34962
		},
		{
			"buffer":0,
			"byteLength":648,
			"byteOffset":51352,
			"target":34963
		},
		{
			"buffer":0,
			"byteLength":2304,
			"byteOffset":52000,
			"target":34962
		},
		{
			"buffer":0,
			"byteLength":2304,
			"byteOffset":54304,
			"target":34962
		},
		{
			"buffer":0,
			"byteLength":1536,
			"byteOffset":56608,
			"target":34962
		},
		{
			"buffer":0,
			"byteLength":744,
			"byteOffset":58144,
			"target":34963
		}
	],
	"samplers":[
		{
			"magFilter":9729,
			"minFilter":9987
		}
	],
	"buffers":[
		{
			"byteLength":58888,
			"uri":"enemy2.bin"
		}
	]
}
