{
	"asset":{
		"generator":"Khronos glTF Blender I/O v4.1.63",
		"version":"2.0"
	},
	"scene":0,
	"scenes":[
		{
			"name":"Scene",
			"nodes":[
				16
			]
		}
	],
	"nodes":[
		{
			"name":"SharkHead",
			"rotation":[
				-0.10919126868247986,
				-1.6817726589124504e-07,
				5.973225913891156e-09,
				0.9940207600593567
			],
			"scale":[
				0.9999999403953552,
				0.9999998211860657,
				0.9999998211860657
			],
			"translation":[
				-1.2975181107321987e-07,
				0.9999995827674866,
				-7.925038403300277e-10
			]
		},
		{
			"name":"SharkJaw",
			"rotation":[
				2.2653701137187454e-08,
				0.956911563873291,
				0.2903796434402466,
				1.8631754983289284e-07
			],
			"scale":[
				0.9999999403953552,
				0.9999998807907104,
				0.9999998807907104
			],
			"translation":[
				-1.2975181107321987e-07,
				0.9999995827674866,
				-7.925038403300277e-10
			]
		},
		{
			"children":[
				0,
				1
			],
			"name":"Sharkthroat",
			"rotation":[
				-3.7951409126435465e-08,
				4.24903703333257e-08,
				-7.408138298224849e-15,
				1
			],
			"scale":[
				0.9999999403953552,
				0.9999998211860657,
				0.9999997615814209
			],
			"translation":[
				-9.135760592471343e-08,
				-2.6810981879066276e-08,
				9.668901412851483e-08
			]
		},
		{
			"name":"Sharktail4",
			"rotation":[
				-0.011674345470964909,
				-4.722734558981756e-07,
				1.3105862173290461e-08,
				0.9999318718910217
			],
			"scale":[
				0.9999999403953552,
				1.0000001192092896,
				1
			],
			"translation":[
				4.1849123277870603e-08,
				0.5644738674163818,
				-9.089944796869531e-08
			]
		},
		{
			"children":[
				3
			],
			"name":"Sharktail3",
			"rotation":[
				0.01684904843568802,
				2.2634087599726627e-06,
				-5.233399136272965e-08,
				0.9998580813407898
			],
			"scale":[
				0.9999999403953552,
				0.9999998211860657,
				0.9999999403953552
			],
			"translation":[
				1.0597243971233183e-07,
				0.8966290950775146,
				7.40146788302809e-09
			]
		},
		{
			"children":[
				4
			],
			"name":"Sharktail2",
			"rotation":[
				-4.0742637708035545e-08,
				0.9997987747192383,
				-0.02006298117339611,
				3.2934856335486984e-06
			],
			"scale":[
				0.9999999403953552,
				0.9999998807907104,
				0.9999999403953552
			],
			"translation":[
				1.2952217787187692e-07,
				0.824493944644928,
				-4.328967406763695e-09
			]
		},
		{
			"children":[
				5
			],
			"name":"Sharktail1",
			"rotation":[
				0.004223764408379793,
				-4.951311893819366e-07,
				-1.0266527183944163e-08,
				0.9999911189079285
			],
			"scale":[
				0.9999999403953552,
				1,
				0.9999999403953552
			],
			"translation":[
				-5.264364233426022e-08,
				0.8893281817436218,
				-8.841880116960965e-08
			]
		},
		{
			"children":[
				6
			],
			"name":"Sharktail0",
			"rotation":[
				1.1480994999146787e-06,
				-0.009562700986862183,
				-0.9999542832374573,
				1.075201172540119e-08
			],
			"scale":[
				0.9999999403953552,
				1,
				0.9999998807907104
			],
			"translation":[
				-9.135760592471343e-08,
				-2.6810981879066276e-08,
				9.668901412851483e-08
			]
		},
		{
			"name":"Rightfena3",
			"rotation":[
				-0.2436417043209076,
				-0.016074026003479958,
				0.029264701530337334,
				0.9692904353141785
			],
			"scale":[
				1.0000001192092896,
				1.0000001192092896,
				1
			],
			"translation":[
				-6.494428816949949e-08,
				0.27088773250579834,
				4.470348358154297e-08
			]
		},
		{
			"children":[
				8
			],
			"name":"Rightfena2",
			"rotation":[
				-0.1867089718580246,
				0.0026245350018143654,
				0.012612218037247658,
				0.982330858707428
			],
			"scale":[
				1.0000001192092896,
				1.0000001192092896,
				1
			],
			"translation":[
				3.620516508817673e-08,
				0.5816575288772583,
				-3.725290298461914e-09
			]
		},
		{
			"children":[
				9
			],
			"name":"Righhfena1",
			"rotation":[
				-0.20940963923931122,
				0.712186336517334,
				0.6263039708137512,
				0.23807887732982635
			],
			"scale":[
				0.9999998807907104,
				0.9999998807907104,
				0.9999998807907104
			],
			"translation":[
				-9.135760592471343e-08,
				-2.6810981879066276e-08,
				9.668901412851483e-08
			]
		},
		{
			"name":"Leftfena3",
			"rotation":[
				-0.24441292881965637,
				0.019739799201488495,
				-0.03604244440793991,
				0.9688001275062561
			],
			"scale":[
				1.0000001192092896,
				1,
				1
			],
			"translation":[
				4.048251867061481e-08,
				0.2750374674797058,
				-4.470348358154297e-08
			]
		},
		{
			"children":[
				11
			],
			"name":"Leftfena2",
			"rotation":[
				-0.1850096434354782,
				-0.0035670644138008356,
				0.0009521449101157486,
				0.9827297925949097
			],
			"scale":[
				0.9999999403953552,
				1,
				0.9999998807907104
			],
			"translation":[
				6.28642737865448e-09,
				0.5798104405403137,
				4.0978193283081055e-08
			]
		},
		{
			"children":[
				12
			],
			"name":"Leftfena1",
			"rotation":[
				-0.20480357110500336,
				-0.7140464186668396,
				-0.6276348233222961,
				0.2329544574022293
			],
			"scale":[
				1.0000007152557373,
				1,
				1
			],
			"translation":[
				-9.135760592471343e-08,
				-2.6810981879066276e-08,
				9.668901412851483e-08
			]
		},
		{
			"mesh":0,
			"name":"Parent Sharkbody",
			"skin":0
		},
		{
			"mesh":1,
			"name":"Sharkjaw",
			"skin":0
		},
		{
			"children":[
				14,
				15,
				2,
				7,
				10,
				13
			],
			"name":"Armature",
			"rotation":[
				0.502947986125946,
				-0.5029479265213013,
				-0.4970346689224243,
				0.4970346689224243
			],
			"scale":[
				1.00735342502594,
				1.00735342502594,
				1.00735342502594
			],
			"translation":[
				0,
				1.0004682540893555,
				0.20270928740501404
			]
		}
	],
	"animations":[
		{
			"channels":[
				{
					"sampler":0,
					"target":{
						"node":2,
						"path":"translation"
					}
				},
				{
					"sampler":1,
					"target":{
						"node":2,
						"path":"rotation"
					}
				},
				{
					"sampler":2,
					"target":{
						"node":2,
						"path":"scale"
					}
				},
				{
					"sampler":3,
					"target":{
						"node":0,
						"path":"translation"
					}
				},
				{
					"sampler":4,
					"target":{
						"node":0,
						"path":"rotation"
					}
				},
				{
					"sampler":5,
					"target":{
						"node":0,
						"path":"scale"
					}
				},
				{
					"sampler":6,
					"target":{
						"node":1,
						"path":"translation"
					}
				},
				{
					"sampler":7,
					"target":{
						"node":1,
						"path":"rotation"
					}
				},
				{
					"sampler":8,
					"target":{
						"node":1,
						"path":"scale"
					}
				},
				{
					"sampler":9,
					"target":{
						"node":7,
						"path":"translation"
					}
				},
				{
					"sampler":10,
					"target":{
						"node":7,
						"path":"rotation"
					}
				},
				{
					"sampler":11,
					"target":{
						"node":7,
						"path":"scale"
					}
				},
				{
					"sampler":12,
					"target":{
						"node":6,
						"path":"translation"
					}
				},
				{
					"sampler":13,
					"target":{
						"node":6,
						"path":"rotation"
					}
				},
				{
					"sampler":14,
					"target":{
						"node":6,
						"path":"scale"
					}
				},
				{
					"sampler":15,
					"target":{
						"node":5,
						"path":"translation"
					}
				},
				{
					"sampler":16,
					"target":{
						"node":5,
						"path":"rotation"
					}
				},
				{
					"sampler":17,
					"target":{
						"node":5,
						"path":"scale"
					}
				},
				{
					"sampler":18,
					"target":{
						"node":4,
						"path":"translation"
					}
				},
				{
					"sampler":19,
					"target":{
						"node":4,
						"path":"rotation"
					}
				},
				{
					"sampler":20,
					"target":{
						"node":4,
						"path":"scale"
					}
				},
				{
					"sampler":21,
					"target":{
						"node":3,
						"path":"translation"
					}
				},
				{
					"sampler":22,
					"target":{
						"node":3,
						"path":"rotation"
					}
				},
				{
					"sampler":23,
					"target":{
						"node":3,
						"path":"scale"
					}
				},
				{
					"sampler":24,
					"target":{
						"node":10,
						"path":"translation"
					}
				},
				{
					"sampler":25,
					"target":{
						"node":10,
						"path":"rotation"
					}
				},
				{
					"sampler":26,
					"target":{
						"node":10,
						"path":"scale"
					}
				},
				{
					"sampler":27,
					"target":{
						"node":9,
						"path":"translation"
					}
				},
				{
					"sampler":28,
					"target":{
						"node":9,
						"path":"rotation"
					}
				},
				{
					"sampler":29,
					"target":{
						"node":9,
						"path":"scale"
					}
				},
				{
					"sampler":30,
					"target":{
						"node":8,
						"path":"translation"
					}
				},
				{
					"sampler":31,
					"target":{
						"node":8,
						"path":"rotation"
					}
				},
				{
					"sampler":32,
					"target":{
						"node":8,
						"path":"scale"
					}
				},
				{
					"sampler":33,
					"target":{
						"node":13,
						"path":"translation"
					}
				},
				{
					"sampler":34,
					"target":{
						"node":13,
						"path":"rotation"
					}
				},
				{
					"sampler":35,
					"target":{
						"node":13,
						"path":"scale"
					}
				},
				{
					"sampler":36,
					"target":{
						"node":12,
						"path":"translation"
					}
				},
				{
					"sampler":37,
					"target":{
						"node":12,
						"path":"rotation"
					}
				},
				{
					"sampler":38,
					"target":{
						"node":12,
						"path":"scale"
					}
				},
				{
					"sampler":39,
					"target":{
						"node":11,
						"path":"translation"
					}
				},
				{
					"sampler":40,
					"target":{
						"node":11,
						"path":"rotation"
					}
				},
				{
					"sampler":41,
					"target":{
						"node":11,
						"path":"scale"
					}
				}
			],
			"name":"ArmatureAction",
			"samplers":[
				{
					"input":13,
					"interpolation":"STEP",
					"output":14
				},
				{
					"input":15,
					"interpolation":"LINEAR",
					"output":16
				},
				{
					"input":13,
					"interpolation":"STEP",
					"output":17
				},
				{
					"input":13,
					"interpolation":"STEP",
					"output":18
				},
				{
					"input":15,
					"interpolation":"LINEAR",
					"output":19
				},
				{
					"input":13,
					"interpolation":"STEP",
					"output":20
				},
				{
					"input":13,
					"interpolation":"STEP",
					"output":21
				},
				{
					"input":15,
					"interpolation":"LINEAR",
					"output":22
				},
				{
					"input":13,
					"interpolation":"LINEAR",
					"output":23
				},
				{
					"input":13,
					"interpolation":"STEP",
					"output":24
				},
				{
					"input":15,
					"interpolation":"LINEAR",
					"output":25
				},
				{
					"input":13,
					"interpolation":"STEP",
					"output":26
				},
				{
					"input":13,
					"interpolation":"STEP",
					"output":27
				},
				{
					"input":15,
					"interpolation":"LINEAR",
					"output":28
				},
				{
					"input":13,
					"interpolation":"STEP",
					"output":29
				},
				{
					"input":13,
					"interpolation":"STEP",
					"output":30
				},
				{
					"input":15,
					"interpolation":"LINEAR",
					"output":31
				},
				{
					"input":13,
					"interpolation":"STEP",
					"output":32
				},
				{
					"input":13,
					"interpolation":"STEP",
					"output":33
				},
				{
					"input":15,
					"interpolation":"LINEAR",
					"output":34
				},
				{
					"input":13,
					"interpolation":"STEP",
					"output":35
				},
				{
					"input":13,
					"interpolation":"STEP",
					"output":36
				},
				{
					"input":15,
					"interpolation":"LINEAR",
					"output":37
				},
				{
					"input":13,
					"interpolation":"STEP",
					"output":38
				},
				{
					"input":13,
					"interpolation":"STEP",
					"output":39
				},
				{
					"input":13,
					"interpolation":"STEP",
					"output":40
				},
				{
					"input":13,
					"interpolation":"STEP",
					"output":41
				},
				{
					"input":13,
					"interpolation":"STEP",
					"output":42
				},
				{
					"input":15,
					"interpolation":"LINEAR",
					"output":43
				},
				{
					"input":13,
					"interpolation":"LINEAR",
					"output":44
				},
				{
					"input":13,
					"interpolation":"LINEAR",
					"output":45
				},
				{
					"input":13,
					"interpolation":"LINEAR",
					"output":46
				},
				{
					"input":13,
					"interpolation":"LINEAR",
					"output":47
				},
				{
					"input":13,
					"interpolation":"STEP",
					"output":48
				},
				{
					"input":13,
					"interpolation":"STEP",
					"output":49
				},
				{
					"input":13,
					"interpolation":"STEP",
					"output":50
				},
				{
					"input":13,
					"interpolation":"STEP",
					"output":51
				},
				{
					"input":15,
					"interpolation":"LINEAR",
					"output":52
				},
				{
					"input":13,
					"interpolation":"LINEAR",
					"output":53
				},
				{
					"input":13,
					"interpolation":"LINEAR",
					"output":54
				},
				{
					"input":13,
					"interpolation":"LINEAR",
					"output":55
				},
				{
					"input":13,
					"interpolation":"LINEAR",
					"output":56
				}
			]
		}
	],
	"materials":[
		{
			"doubleSided":true,
			"name":"Body - Sharktexture002.png",
			"pbrMetallicRoughness":{}
		},
		{
			"doubleSided":true,
			"name":"Mouth - Sharkmouthtexture002.png",
			"pbrMetallicRoughness":{}
		}
	],
	"meshes":[
		{
			"name":"Parent sharkbody data",
			"primitives":[
				{
					"attributes":{
						"POSITION":0,
						"NORMAL":1,
						"TEXCOORD_0":2,
						"JOINTS_0":3,
						"WEIGHTS_0":4
					},
					"indices":5,
					"material":0
				}
			]
		},
		{
			"name":"Sharkjaw data",
			"primitives":[
				{
					"attributes":{
						"POSITION":7,
						"NORMAL":8,
						"TEXCOORD_0":9,
						"JOINTS_0":10,
						"WEIGHTS_0":11
					},
					"indices":12,
					"material":1
				}
			]
		}
	],
	"skins":[
		{
			"inverseBindMatrices":6,
			"joints":[
				2,
				0,
				1,
				7,
				6,
				5,
				4,
				3,
				10,
				9,
				8,
				13,
				12,
				11
			],
			"name":"Armature"
		}
	],
	"accessors":[
		{
			"bufferView":0,
			"componentType":5126,
			"count":970,
			"max":[
				0.9896987676620483,
				1.5594044923782349,
				2.2091808319091797
			],
			"min":[
				-1.3355687856674194,
				0.22122585773468018,
				-3.749830484390259
			],
			"type":"VEC3"
		},
		{
			"bufferView":1,
			"componentType":5126,
			"count":970,
			"type":"VEC3"
		},
		{
			"bufferView":2,
			"componentType":5126,
			"count":970,
			"type":"VEC2"
		},
		{
			"bufferView":3,
			"componentType":5121,
			"count":970,
			"type":"VEC4"
		},
		{
			"bufferView":4,
			"componentType":5126,
			"count":970,
			"type":"VEC4"
		},
		{
			"bufferView":5,
			"componentType":5123,
			"count":3924,
			"type":"SCALAR"
		},
		{
			"bufferView":6,
			"componentType":5126,
			"count":14,
			"type":"MAT4"
		},
		{
			"bufferView":7,
			"componentType":5126,
			"count":1372,
			"max":[
				0.3153194189071655,
				1.088128685951233,
				1.9875825643539429
			],
			"min":[
				-0.35167551040649414,
				0.6598206162452698,
				0.9350312352180481
			],
			"type":"VEC3"
		},
		{
			"bufferView":8,
			"componentType":5126,
			"count":1372,
			"type":"VEC3"
		},
		{
			"bufferView":9,
			"componentType":5126,
			"count":1372,
			"type":"VEC2"
		},
		{
			"bufferView":10,
			"componentType":5121,
			"count":1372,
			"type":"VEC4"
		},
		{
			"bufferView":11,
			"componentType":5126,
			"count":1372,
			"type":"VEC4"
		},
		{
			"bufferView":12,
			"componentType":5123,
			"count":5676,
			"type":"SCALAR"
		},
		{
			"bufferView":13,
			"componentType":5126,
			"count":2,
			"max":[
				7.083333333333333
			],
			"min":[
				0
			],
			"type":"SCALAR"
		},
		{
			"bufferView":14,
			"componentType":5126,
			"count":2,
			"type":"VEC3"
		},
		{
			"bufferView":15,
			"componentType":5126,
			"count":171,
			"max":[
				7.083333333333333
			],
			"min":[
				0
			],
			"type":"SCALAR"
		},
		{
			"bufferView":16,
			"componentType":5126,
			"count":171,
			"type":"VEC4"
		},
		{
			"bufferView":17,
			"componentType":5126,
			"count":2,
			"type":"VEC3"
		},
		{
			"bufferView":18,
			"componentType":5126,
			"count":2,
			"type":"VEC3"
		},
		{
			"bufferView":19,
			"componentType":5126,
			"count":171,
			"type":"VEC4"
		},
		{
			"bufferView":20,
			"componentType":5126,
			"count":2,
			"type":"VEC3"
		},
		{
			"bufferView":21,
			"componentType":5126,
			"count":2,
			"type":"VEC3"
		},
		{
			"bufferView":22,
			"componentType":5126,
			"count":171,
			"type":"VEC4"
		},
		{
			"bufferView":23,
			"componentType":5126,
			"count":2,
			"type":"VEC3"
		},
		{
			"bufferView":24,
			"componentType":5126,
			"count":2,
			"type":"VEC3"
		},
		{
			"bufferView":25,
			"componentType":5126,
			"count":171,
			"type":"VEC4"
		},
		{
			"bufferView":26,
			"componentType":5126,
			"count":2,
			"type":"VEC3"
		},
		{
			"bufferView":27,
			"componentType":5126,
			"count":2,
			"type":"VEC3"
		},
		{
			"bufferView":28,
			"componentType":5126,
			"count":171,
			"type":"VEC4"
		},
		{
			"bufferView":29,
			"componentType":5126,
			"count":2,
			"type":"VEC3"
		},
		{
			"bufferView":30,
			"componentType":5126,
			"count":2,
			"type":"VEC3"
		},
		{
			"bufferView":31,
			"componentType":5126,
			"count":171,
			"type":"VEC4"
		},
		{
			"bufferView":32,
			"componentType":5126,
			"count":2,
			"type":"VEC3"
		},
		{
			"bufferView":33,
			"componentType":5126,
			"count":2,
			"type":"VEC3"
		},
		{
			"bufferView":34,
			"componentType":5126,
			"count":171,
			"type":"VEC4"
		},
		{
			"bufferView":35,
			"componentType":5126,
			"count":2,
			"type":"VEC3"
		},
		{
			"bufferView":36,
			"componentType":5126,
			"count":2,
			"type":"VEC3"
		},
		{
			"bufferView":37,
			"componentType":5126,
			"count":171,
			"type":"VEC4"
		},
		{
			"bufferView":38,
			"componentType":5126,
			"count":2,
			"type":"VEC3"
		},
		{
			"bufferView":39,
			"componentType":5126,
			"count":2,
			"type":"VEC3"
		},
		{
			"bufferView":40,
			"componentType":5126,
			"count":2,
			"type":"VEC4"
		},
		{
			"bufferView":41,
			"componentType":5126,
			"count":2,
			"type":"VEC3"
		},
		{
			"bufferView":42,
			"componentType":5126,
			"count":2,
			"type":"VEC3"
		},
		{
			"bufferView":43,
			"componentType":5126,
			"count":171,
			"type":"VEC4"
		},
		{
			"bufferView":44,
			"componentType":5126,
			"count":2,
			"type":"VEC3"
		},
		{
			"bufferView":45,
			"componentType":5126,
			"count":2,
			"type":"VEC3"
		},
		{
			"bufferView":46,
			"componentType":5126,
			"count":2,
			"type":"VEC4"
		},
		{
			"bufferView":47,
			"componentType":5126,
			"count":2,
			"type":"VEC3"
		},
		{
			"bufferView":48,
			"componentType":5126,
			"count":2,
			"type":"VEC3"
		},
		{
			"bufferView":49,
			"componentType":5126,
			"count":2,
			"type":"VEC4"
		},
		{
			"bufferView":50,
			"componentType":5126,
			"count":2,
			"type":"VEC3"
		},
		{
			"bufferView":51,
			"componentType":5126,
			"count":2,
			"type":"VEC3"
		},
		{
			"bufferView":52,
			"componentType":5126,
			"count":171,
			"type":"VEC4"
		},
		{
			"bufferView":53,
			"componentType":5126,
			"count":2,
			"type":"VEC3"
		},
		{
			"bufferView":54,
			"componentType":5126,
			"count":2,
			"type":"VEC3"
		},
		{
			"bufferView":55,
			"componentType":5126,
			"count":2,
			"type":"VEC4"
		},
		{
			"bufferView":56,
			"componentType":5126,
			"count":2,
			"type":"VEC3"
		}
	],
	"bufferViews":[
		{
			"buffer":0,
			"byteLength":11640,
			"byteOffset":0,
			"target":34962
		},
		{
			"buffer":0,
			"byteLength":11640,
			"byteOffset":11640,
			"target":34962
		},
		{
			"buffer":0,
			"byteLength":7760,
			"byteOffset":23280,
			"target":34962
		},
		{
			"buffer":0,
			"byteLength":3880,
			"byteOffset":31040,
			"target":34962
		},
		{
			"buffer":0,
			"byteLength":15520,
			"byteOffset":34920,
			"target":34962
		},
		{
			"buffer":0,
			"byteLength":7848,
			"byteOffset":50440,
			"target":34963
		},
		{
			"buffer":0,
			"byteLength":896,
			"byteOffset":58288
		},
		{
			"buffer":0,
			"byteLength":16464,
			"byteOffset":59184,
			"target":34962
		},
		{
			"buffer":0,
			"byteLength":16464,
			"byteOffset":75648,
			"target":34962
		},
		{
			"buffer":0,
			"byteLength":10976,
			"byteOffset":92112,
			"target":34962
		},
		{
			"buffer":0,
			"byteLength":5488,
			"byteOffset":103088,
			"target":34962
		},
		{
			"buffer":0,
			"byteLength":21952,
			"byteOffset":108576,
			"target":34962
		},
		{
			"buffer":0,
			"byteLength":11352,
			"byteOffset":130528,
			"target":34963
		},
		{
			"buffer":0,
			"byteLength":8,
			"byteOffset":141880
		},
		{
			"buffer":0,
			"byteLength":24,
			"byteOffset":141888
		},
		{
			"buffer":0,
			"byteLength":684,
			"byteOffset":141912
		},
		{
			"buffer":0,
			"byteLength":2736,
			"byteOffset":142596
		},
		{
			"buffer":0,
			"byteLength":24,
			"byteOffset":145332
		},
		{
			"buffer":0,
			"byteLength":24,
			"byteOffset":145356
		},
		{
			"buffer":0,
			"byteLength":2736,
			"byteOffset":145380
		},
		{
			"buffer":0,
			"byteLength":24,
			"byteOffset":148116
		},
		{
			"buffer":0,
			"byteLength":24,
			"byteOffset":148140
		},
		{
			"buffer":0,
			"byteLength":2736,
			"byteOffset":148164
		},
		{
			"buffer":0,
			"byteLength":24,
			"byteOffset":150900
		},
		{
			"buffer":0,
			"byteLength":24,
			"byteOffset":150924
		},
		{
			"buffer":0,
			"byteLength":2736,
			"byteOffset":150948
		},
		{
			"buffer":0,
			"byteLength":24,
			"byteOffset":153684
		},
		{
			"buffer":0,
			"byteLength":24,
			"byteOffset":153708
		},
		{
			"buffer":0,
			"byteLength":2736,
			"byteOffset":153732
		},
		{
			"buffer":0,
			"byteLength":24,
			"byteOffset":156468
		},
		{
			"buffer":0,
			"byteLength":24,
			"byteOffset":156492
		},
		{
			"buffer":0,
			"byteLength":2736,
			"byteOffset":156516
		},
		{
			"buffer":0,
			"byteLength":24,
			"byteOffset":159252
		},
		{
			"buffer":0,
			"byteLength":24,
			"byteOffset":159276
		},
		{
			"buffer":0,
			"byteLength":2736,
			"byteOffset":159300
		},
		{
			"buffer":0,
			"byteLength":24,
			"byteOffset":162036
		},
		{
			"buffer":0,
			"byteLength":24,
			"byteOffset":162060
		},
		{
			"buffer":0,
			"byteLength":2736,
			"byteOffset":162084
		},
		{
			"buffer":0,
			"byteLength":24,
			"byteOffset":164820
		},
		{
			"buffer":0,
			"byteLength":24,
			"byteOffset":164844
		},
		{
			"buffer":0,
			"byteLength":32,
			"byteOffset":164868
		},
		{
			"buffer":0,
			"byteLength":24,
			"byteOffset":164900
		},
		{
			"buffer":0,
			"byteLength":24,
			"byteOffset":164924
		},
		{
			"buffer":0,
			"byteLength":2736,
			"byteOffset":164948
		},
		{
			"buffer":0,
			"byteLength":24,
			"byteOffset":167684
		},
		{
			"buffer":0,
			"byteLength":24,
			"byteOffset":167708
		},
		{
			"buffer":0,
			"byteLength":32,
			"byteOffset":167732
		},
		{
			"buffer":0,
			"byteLength":24,
			"byteOffset":167764
		},
		{
			"buffer":0,
			"byteLength":24,
			"byteOffset":167788
		},
		{
			"buffer":0,
			"byteLength":32,
			"byteOffset":167812
		},
		{
			"buffer":0,
			"byteLength":24,
			"byteOffset":167844
		},
		{
			"buffer":0,
			"byteLength":24,
			"byteOffset":167868
		},
		{
			"buffer":0,
			"byteLength":2736,
			"byteOffset":167892
		},
		{
			"buffer":0,
			"byteLength":24,
			"byteOffset":170628
		},
		{
			"buffer":0,
			"byteLength":24,
			"byteOffset":170652
		},
		{
			"buffer":0,
			"byteLength":32,
			"byteOffset":170676
		},
		{
			"buffer":0,
			"byteLength":24,
			"byteOffset":170708
		}
	],
	"buffers":[
		{
			"byteLength":170732,
			"uri":"Shark.bin"
		}
	]
}
