{
	"asset":{
		"generator":"Khronos glTF Blender I/O v4.1.63",
		"version":"2.0"
	},
	"scene":0,
	"scenes":[
		{
			"name":"Scene",
			"nodes":[
				0,
				1,
				2,
				3,
				4,
				5
			]
		}
	],
	"nodes":[
		{
			"mesh":0,
			"name":"parasol",
			"rotation":[
				0.7071068286895752,
				0,
				0,
				0.7071068286895752
			]
		},
		{
			"mesh":1,
			"name":"chair_02",
			"rotation":[
				0.7071068286895752,
				0,
				0,
				0.7071068286895752
			],
			"translation":[
				0.7684329748153687,
				0,
				0.7364576458930969
			]
		},
		{
			"mesh":2,
			"name":"chair_02.001",
			"rotation":[
				0.7071068286895752,
				0,
				0,
				0.7071068286895752
			],
			"translation":[
				0.7684329748153687,
				0,
				0.7364576458930969
			]
		},
		{
			"mesh":3,
			"name":"chair_02.002",
			"rotation":[
				0.7071068286895752,
				0,
				0,
				0.7071068286895752
			],
			"translation":[
				0.7684329748153687,
				0,
				0.7364576458930969
			]
		},
		{
			"mesh":4,
			"name":"chair_02.003",
			"rotation":[
				0.7071068286895752,
				0,
				0,
				0.7071068286895752
			],
			"translation":[
				-0.7596120834350586,
				0,
				0.7357614636421204
			]
		},
		{
			"mesh":5,
			"name":"COL1",
			"scale":[
				1.176148533821106,
				1,
				1.2647846937179565
			],
			"translation":[
				0,
				0.9681036472320557,
				0
			]
		}
	],
	"materials":[
		{
			"doubleSided":true,
			"name":"\u30de\u30c6\u30ea\u30a2\u30eb",
			"pbrMetallicRoughness":{
				"baseColorTexture":{
					"index":0
				},
				"metallicFactor":0,
				"roughnessFactor":0.5
			}
		},
		{
			"doubleSided":true,
			"name":"\u30de\u30c6\u30ea\u30a2\u30eb.001",
			"pbrMetallicRoughness":{
				"baseColorTexture":{
					"index":1
				},
				"metallicFactor":0,
				"roughnessFactor":0.5
			}
		},
		{
			"doubleSided":true,
			"name":"\u30de\u30c6\u30ea\u30a2\u30eb.002",
			"pbrMetallicRoughness":{
				"baseColorTexture":{
					"index":2
				},
				"metallicFactor":0,
				"roughnessFactor":0.5
			}
		},
		{
			"doubleSided":true,
			"name":"\u30de\u30c6\u30ea\u30a2\u30eb.003",
			"pbrMetallicRoughness":{
				"baseColorTexture":{
					"index":3
				},
				"metallicFactor":0,
				"roughnessFactor":0.5
			}
		},
		{
			"doubleSided":true,
			"name":"\u30de\u30c6\u30ea\u30a2\u30eb.004",
			"pbrMetallicRoughness":{
				"baseColorTexture":{
					"index":4
				},
				"metallicFactor":0,
				"roughnessFactor":0.5
			}
		}
	],
	"meshes":[
		{
			"name":"parasol",
			"primitives":[
				{
					"attributes":{
						"POSITION":0,
						"NORMAL":1,
						"TEXCOORD_0":2
					},
					"indices":3,
					"material":0
				}
			]
		},
		{
			"name":"chair_02",
			"primitives":[
				{
					"attributes":{
						"POSITION":4,
						"NORMAL":5,
						"TEXCOORD_0":6
					},
					"indices":7,
					"material":1
				}
			]
		},
		{
			"name":"chair_02.001",
			"primitives":[
				{
					"attributes":{
						"POSITION":8,
						"NORMAL":9,
						"TEXCOORD_0":10
					},
					"indices":7,
					"material":2
				}
			]
		},
		{
			"name":"chair_02.002",
			"primitives":[
				{
					"attributes":{
						"POSITION":11,
						"NORMAL":12,
						"TEXCOORD_0":13
					},
					"indices":7,
					"material":3
				}
			]
		},
		{
			"name":"chair_02.003",
			"primitives":[
				{
					"attributes":{
						"POSITION":14,
						"NORMAL":15,
						"TEXCOORD_0":16
					},
					"indices":7,
					"material":4
				}
			]
		},
		{
			"name":"\u7acb\u65b9\u4f53",
			"primitives":[
				{
					"attributes":{
						"POSITION":17,
						"NORMAL":18,
						"TEXCOORD_0":19
					},
					"indices":20
				}
			]
		}
	],
	"textures":[
		{
			"sampler":0,
			"source":0
		},
		{
			"sampler":0,
			"source":1
		},
		{
			"sampler":0,
			"source":1
		},
		{
			"sampler":0,
			"source":1
		},
		{
			"sampler":0,
			"source":1
		}
	],
	"images":[
		{
			"mimeType":"image/png",
			"name":"parasol",
			"uri":"parasol.png"
		},
		{
			"mimeType":"image/png",
			"name":"chair_02",
			"uri":"chair_02.png"
		}
	],
	"accessors":[
		{
			"bufferView":0,
			"componentType":5126,
			"count":118,
			"max":[
				1.5099689960479736,
				1.5099689960479736,
				0
			],
			"min":[
				-1.5099689960479736,
				-1.5099689960479736,
				-2.609999895095825
			],
			"type":"VEC3"
		},
		{
			"bufferView":1,
			"componentType":5126,
			"count":118,
			"type":"VEC3"
		},
		{
			"bufferView":2,
			"componentType":5126,
			"count":118,
			"type":"VEC2"
		},
		{
			"bufferView":3,
			"componentType":5123,
			"count":432,
			"type":"SCALAR"
		},
		{
			"bufferView":4,
			"componentType":5126,
			"count":267,
			"max":[
				0.3402000069618225,
				0.5837759971618652,
				0.0005760000203736126
			],
			"min":[
				-0.3402000069618225,
				-0.6019619703292847,
				-0.9019380211830139
			],
			"type":"VEC3"
		},
		{
			"bufferView":5,
			"componentType":5126,
			"count":267,
			"type":"VEC3"
		},
		{
			"bufferView":6,
			"componentType":5126,
			"count":267,
			"type":"VEC2"
		},
		{
			"bufferView":7,
			"componentType":5123,
			"count":744,
			"type":"SCALAR"
		},
		{
			"bufferView":8,
			"componentType":5126,
			"count":267,
			"max":[
				0.3402000069618225,
				0.5837759971618652,
				0.0005760000203736126
			],
			"min":[
				-0.3402000069618225,
				-0.6019619703292847,
				-0.9019380211830139
			],
			"type":"VEC3"
		},
		{
			"bufferView":9,
			"componentType":5126,
			"count":267,
			"type":"VEC3"
		},
		{
			"bufferView":10,
			"componentType":5126,
			"count":267,
			"type":"VEC2"
		},
		{
			"bufferView":11,
			"componentType":5126,
			"count":267,
			"max":[
				0.3402000069618225,
				0.5837759971618652,
				0.0005760000203736126
			],
			"min":[
				-0.3402000069618225,
				-0.6019619703292847,
				-0.9019380211830139
			],
			"type":"VEC3"
		},
		{
			"bufferView":12,
			"componentType":5126,
			"count":267,
			"type":"VEC3"
		},
		{
			"bufferView":13,
			"componentType":5126,
			"count":267,
			"type":"VEC2"
		},
		{
			"bufferView":14,
			"componentType":5126,
			"count":267,
			"max":[
				0.3402000069618225,
				0.5837759971618652,
				0.0005760000203736126
			],
			"min":[
				-0.3402000069618225,
				-0.6019619703292847,
				-0.9019380211830139
			],
			"type":"VEC3"
		},
		{
			"bufferView":15,
			"componentType":5126,
			"count":267,
			"type":"VEC3"
		},
		{
			"bufferView":16,
			"componentType":5126,
			"count":267,
			"type":"VEC2"
		},
		{
			"bufferView":17,
			"componentType":5126,
			"count":24,
			"max":[
				1,
				1,
				1
			],
			"min":[
				-1,
				-1,
				-1
			],
			"type":"VEC3"
		},
		{
			"bufferView":18,
			"componentType":5126,
			"count":24,
			"type":"VEC3"
		},
		{
			"bufferView":19,
			"componentType":5126,
			"count":24,
			"type":"VEC2"
		},
		{
			"bufferView":20,
			"componentType":5123,
			"count":36,
			"type":"SCALAR"
		}
	],
	"bufferViews":[
		{
			"buffer":0,
			"byteLength":1416,
			"byteOffset":0,
			"target":34962
		},
		{
			"buffer":0,
			"byteLength":1416,
			"byteOffset":1416,
			"target":34962
		},
		{
			"buffer":0,
			"byteLength":944,
			"byteOffset":2832,
			"target":34962
		},
		{
			"buffer":0,
			"byteLength":864,
			"byteOffset":3776,
			"target":34963
		},
		{
			"buffer":0,
			"byteLength":3204,
			"byteOffset":4640,
			"target":34962
		},
		{
			"buffer":0,
			"byteLength":3204,
			"byteOffset":7844,
			"target":34962
		},
		{
			"buffer":0,
			"byteLength":2136,
			"byteOffset":11048,
			"target":34962
		},
		{
			"buffer":0,
			"byteLength":1488,
			"byteOffset":13184,
			"target":34963
		},
		{
			"buffer":0,
			"byteLength":3204,
			"byteOffset":14672,
			"target":34962
		},
		{
			"buffer":0,
			"byteLength":3204,
			"byteOffset":17876,
			"target":34962
		},
		{
			"buffer":0,
			"byteLength":2136,
			"byteOffset":21080,
			"target":34962
		},
		{
			"buffer":0,
			"byteLength":3204,
			"byteOffset":23216,
			"target":34962
		},
		{
			"buffer":0,
			"byteLength":3204,
			"byteOffset":26420,
			"target":34962
		},
		{
			"buffer":0,
			"byteLength":2136,
			"byteOffset":29624,
			"target":34962
		},
		{
			"buffer":0,
			"byteLength":3204,
			"byteOffset":31760,
			"target":34962
		},
		{
			"buffer":0,
			"byteLength":3204,
			"byteOffset":34964,
			"target":34962
		},
		{
			"buffer":0,
			"byteLength":2136,
			"byteOffset":38168,
			"target":34962
		},
		{
			"buffer":0,
			"byteLength":288,
			"byteOffset":40304,
			"target":34962
		},
		{
			"buffer":0,
			"byteLength":288,
			"byteOffset":40592,
			"target":34962
		},
		{
			"buffer":0,
			"byteLength":192,
			"byteOffset":40880,
			"target":34962
		},
		{
			"buffer":0,
			"byteLength":72,
			"byteOffset":41072,
			"target":34963
		}
	],
	"samplers":[
		{
			"magFilter":9729,
			"minFilter":9987
		}
	],
	"buffers":[
		{
			"byteLength":41144,
			"uri":"Parasol.bin"
		}
	]
}
