{
    "asset" : {
        "generator" : "Khronos glTF Blender I/O v3.2.40",
        "version" : "2.0"
    },
    "scene" : 0,
    "scenes" : [
        {
            "name" : "Scene",
            "nodes" : [
                0,
                1
            ]
        }
    ],
    "nodes" : [
        {
            "mesh" : 0,
            "name" : "Cube",
            "scale" : [
                1,
                1,
                0.6809016466140747
            ],
            "translation" : [
                0,
                0.4208790063858032,
                -0.10694622993469238
            ]
        },
        {
            "mesh" : 1,
            "name" : "\u5186\u67f1",
            "rotation" : [
                0,
                0,
                0.7071067094802856,
                0.7071068286895752
            ],
            "scale" : [
                0.7541273236274719,
                0.34198352694511414,
                1.6709070205688477
            ],
            "translation" : [
                0,
                0.49931788444519043,
                -0.10694622993469238
            ]
        }
    ],
    "materials" : [
        {
            "doubleSided" : true,
            "name" : "\u30de\u30c6\u30ea\u30a2\u30eb.002",
            "pbrMetallicRoughness" : {
                "baseColorTexture" : {
                    "index" : 0
                },
                "metallicFactor" : 0,
                "roughnessFactor" : 0.5
            }
        },
        {
            "doubleSided" : true,
            "name" : "\u30de\u30c6\u30ea\u30a2\u30eb",
            "pbrMetallicRoughness" : {
                "baseColorFactor" : [
                    0.04696159437298775,
                    0.04696159437298775,
                    0.04696159437298775,
                    1
                ],
                "metallicFactor" : 0,
                "roughnessFactor" : 0.5
            }
        }
    ],
    "meshes" : [
        {
            "name" : "Cube",
            "primitives" : [
                {
                    "attributes" : {
                        "POSITION" : 0,
                        "NORMAL" : 1,
                        "TEXCOORD_0" : 2
                    },
                    "indices" : 3,
                    "material" : 0
                }
            ]
        },
        {
            "name" : "\u5186\u67f1",
            "primitives" : [
                {
                    "attributes" : {
                        "POSITION" : 4,
                        "NORMAL" : 5,
                        "TEXCOORD_0" : 6
                    },
                    "indices" : 7,
                    "material" : 1
                }
            ]
        }
    ],
    "textures" : [
        {
            "sampler" : 0,
            "source" : 0
        }
    ],
    "images" : [
        {
            "mimeType" : "image/jpeg",
            "name" : "pattern_camo2",
            "uri" : "pattern_camo2.jpg"
        }
    ],
    "accessors" : [
        {
            "bufferView" : 0,
            "componentType" : 5126,
            "count" : 503,
            "max" : [
                1.4771599769592285,
                2.3108274936676025,
                2.837930202484131
            ],
            "min" : [
                -1.4771599769592285,
                -0.1733502745628357,
                -3.651923179626465
            ],
            "type" : "VEC3"
        },
        {
            "bufferView" : 1,
            "componentType" : 5126,
            "count" : 503,
            "type" : "VEC3"
        },
        {
            "bufferView" : 2,
            "componentType" : 5126,
            "count" : 503,
            "type" : "VEC2"
        },
        {
            "bufferView" : 3,
            "componentType" : 5123,
            "count" : 768,
            "type" : "SCALAR"
        },
        {
            "bufferView" : 4,
            "componentType" : 5126,
            "count" : 240,
            "max" : [
                0.7071067094802856,
                3.8042922019958496,
                0.9301745295524597
            ],
            "min" : [
                -0.7144890427589417,
                -3.8042922019958496,
                -1
            ],
            "type" : "VEC3"
        },
        {
            "bufferView" : 5,
            "componentType" : 5126,
            "count" : 240,
            "type" : "VEC3"
        },
        {
            "bufferView" : 6,
            "componentType" : 5126,
            "count" : 240,
            "type" : "VEC2"
        },
        {
            "bufferView" : 7,
            "componentType" : 5123,
            "count" : 408,
            "type" : "SCALAR"
        }
    ],
    "bufferViews" : [
        {
            "buffer" : 0,
            "byteLength" : 6036,
            "byteOffset" : 0
        },
        {
            "buffer" : 0,
            "byteLength" : 6036,
            "byteOffset" : 6036
        },
        {
            "buffer" : 0,
            "byteLength" : 4024,
            "byteOffset" : 12072
        },
        {
            "buffer" : 0,
            "byteLength" : 1536,
            "byteOffset" : 16096
        },
        {
            "buffer" : 0,
            "byteLength" : 2880,
            "byteOffset" : 17632
        },
        {
            "buffer" : 0,
            "byteLength" : 2880,
            "byteOffset" : 20512
        },
        {
            "buffer" : 0,
            "byteLength" : 1920,
            "byteOffset" : 23392
        },
        {
            "buffer" : 0,
            "byteLength" : 816,
            "byteOffset" : 25312
        }
    ],
    "samplers" : [
        {
            "magFilter" : 9729,
            "minFilter" : 9987
        }
    ],
    "buffers" : [
        {
            "byteLength" : 26128,
            "uri" : "tank.bin"
        }
    ]
}
