{
	"asset":{
		"generator":"Khronos glTF Blender I/O v4.1.63",
		"version":"2.0"
	},
	"scene":0,
	"scenes":[
		{
			"name":"Scene",
			"nodes":[
				0,
				1,
				2,
				3,
				4,
				5,
				6,
				7,
				8,
				9,
				10,
				11,
				12,
				13,
				14,
				15,
				16,
				17,
				18,
				19,
				20,
				21,
				22,
				23,
				24,
				25,
				26,
				27,
				28,
				29
			]
		}
	],
	"nodes":[
		{
			"mesh":0,
			"name":"Cube.011",
			"rotation":[
				-0.707106351852417,
				0,
				-0.7071072459220886,
				0
			],
			"scale":[
				-0.8661923408508301,
				-0.060820724815130234,
				-0.007240337785333395
			],
			"translation":[
				-0.2521769404411316,
				0.3958311080932617,
				0.7823517322540283
			]
		},
		{
			"mesh":1,
			"name":"Cube.010",
			"rotation":[
				-0.707106351852417,
				0,
				-0.7071072459220886,
				0
			],
			"scale":[
				-0.8661923408508301,
				-0.060820724815130234,
				-0.007240337785333395
			],
			"translation":[
				-0.2521769404411316,
				0.2582530975341797,
				0.7823517322540283
			]
		},
		{
			"mesh":2,
			"name":"Cube.009",
			"rotation":[
				-0.7071048617362976,
				0.0014845066471025348,
				-0.7071055769920349,
				0.0014845073455944657
			],
			"scale":[
				-0.8661923408508301,
				-0.06082070991396904,
				-0.007240337785333395
			],
			"translation":[
				-0.2521769404411316,
				0.1166347861289978,
				0.7823517322540283
			]
		},
		{
			"mesh":3,
			"name":"Cube.008",
			"rotation":[
				-0.707106351852417,
				0,
				-0.7071072459220886,
				0
			],
			"scale":[
				-0.8661923408508301,
				-0.060820724815130234,
				-0.007240337785333395
			],
			"translation":[
				-0.2521769404411316,
				-0.014631390571594238,
				0.7823517322540283
			]
		},
		{
			"mesh":4,
			"name":"Cube.007",
			"rotation":[
				0.7071017026901245,
				0.002583735156804323,
				0.7071024179458618,
				0.002583737252280116
			],
			"scale":[
				-0.8661925792694092,
				-0.06082072854042053,
				-0.00724033871665597
			],
			"translation":[
				1.8868491649627686,
				-0.020546913146972656,
				0.7823527455329895
			]
		},
		{
			"mesh":5,
			"name":"Cube.006",
			"rotation":[
				-0.707106351852417,
				0,
				-0.7071072459220886,
				0
			],
			"scale":[
				-0.8661923408508301,
				-0.060820724815130234,
				-0.007240337785333395
			],
			"translation":[
				1.8868491649627686,
				0.1166347861289978,
				0.7823527455329895
			]
		},
		{
			"mesh":6,
			"name":"Cube.005",
			"rotation":[
				-0.707106351852417,
				0,
				-0.7071072459220886,
				0
			],
			"scale":[
				-0.8661923408508301,
				-0.060820724815130234,
				-0.007240337785333395
			],
			"translation":[
				1.8868491649627686,
				0.24790096282958984,
				0.7823527455329895
			]
		},
		{
			"mesh":7,
			"name":"Cube.004",
			"rotation":[
				-0.7071020007133484,
				0.0025017149746418,
				-0.7071027159690857,
				0.0025017166044563055
			],
			"scale":[
				-0.8661924004554749,
				-0.06082071736454964,
				-0.007240337785333395
			],
			"translation":[
				1.8868491649627686,
				0.3943522274494171,
				0.7823527455329895
			]
		},
		{
			"mesh":8,
			"name":"Cube.003",
			"rotation":[
				0,
				0,
				-1,
				0
			],
			"scale":[
				-1.0702190399169922,
				-0.06082071363925934,
				-0.007240337785333395
			],
			"translation":[
				0.8204596042633057,
				0.3861537277698517,
				-0.03873312473297119
			]
		},
		{
			"mesh":9,
			"name":"Cube.002",
			"rotation":[
				0,
				0,
				-1,
				0
			],
			"scale":[
				-1.0702190399169922,
				-0.06082071363925934,
				-0.007240337785333395
			],
			"translation":[
				0.8204596042633057,
				0.2530123293399811,
				-0.03873312473297119
			]
		},
		{
			"mesh":10,
			"name":"Cube.001",
			"rotation":[
				0,
				0,
				-1,
				0
			],
			"scale":[
				-1.0702190399169922,
				-0.06082071363925934,
				-0.007240337785333395
			],
			"translation":[
				0.8204596042633057,
				0.12174615263938904,
				-0.03873312473297119
			]
		},
		{
			"mesh":11,
			"name":"Cube",
			"rotation":[
				0,
				0,
				-1,
				0
			],
			"scale":[
				-1.0702190399169922,
				-0.06082071363925934,
				-0.007240337785333395
			],
			"translation":[
				0.8204596042633057,
				-0.00952005386352539,
				-0.03873312473297119
			]
		},
		{
			"mesh":12,
			"name":"Cube.019",
			"rotation":[
				0.0007365318015217781,
				-0.7029896974563599,
				0.004636124707758427,
				0.711184561252594
			],
			"scale":[
				0.24766725301742554,
				0.09792295098304749,
				0.2087297886610031
			],
			"translation":[
				0.2854389548301697,
				0.2238805890083313,
				0.8562625050544739
			]
		},
		{
			"mesh":13,
			"name":"pole.009",
			"scale":[
				0.028154565021395683,
				0.3540164530277252,
				0.028154565021395683
			],
			"translation":[
				-0.286715030670166,
				0.27373653650283813,
				1.5724586248397827
			]
		},
		{
			"mesh":13,
			"name":"pole.008",
			"scale":[
				0.028154565021395683,
				0.3540164530277252,
				0.028154565021395683
			],
			"translation":[
				1.915208339691162,
				0.27373653650283813,
				1.5724596977233887
			]
		},
		{
			"mesh":14,
			"name":"Plane",
			"scale":[
				1.0241467952728271,
				1.087005615234375,
				1.087005615234375
			],
			"translation":[
				0.8204590082168579,
				1.4946002960205078,
				0.7861276268959045
			]
		},
		{
			"mesh":13,
			"name":"pole.007",
			"rotation":[
				-0.4999997615814209,
				0.4999997317790985,
				-0.5000002384185791,
				0.5000002384185791
			],
			"scale":[
				0.020852714776992798,
				0.9173786640167236,
				0.020852714776992798
			],
			"translation":[
				1.8571386337280273,
				1.4638004302978516,
				0.7747169137001038
			]
		},
		{
			"mesh":13,
			"name":"pole.006",
			"rotation":[
				-0.4999997615814209,
				0.4999997317790985,
				-0.5000002384185791,
				0.5000002384185791
			],
			"scale":[
				0.020852714776992798,
				0.9173786640167236,
				0.020852714776992798
			],
			"translation":[
				-0.22119158506393433,
				1.4638004302978516,
				0.7747156620025635
			]
		},
		{
			"mesh":13,
			"name":"pole.005",
			"rotation":[
				0,
				0,
				-0.7071068286895752,
				0.7071067094802856
			],
			"scale":[
				0.020852716639637947,
				1.1913038492202759,
				0.020852714776992798
			],
			"translation":[
				0.8158745169639587,
				1.4638004302978516,
				-0.01882767677307129
			]
		},
		{
			"mesh":13,
			"name":"pole.004",
			"rotation":[
				0,
				0,
				-0.7071068286895752,
				0.7071067094802856
			],
			"scale":[
				0.020852716639637947,
				1.1913038492202759,
				0.020852714776992798
			],
			"translation":[
				0.8158735036849976,
				1.4638004302978516,
				1.5724592208862305
			]
		},
		{
			"mesh":13,
			"name":"pole.003",
			"scale":[
				0.020852714776992798,
				0.8015422224998474,
				0.020852714776992798
			],
			"translation":[
				-0.22539067268371582,
				0.7290372252464294,
				1.5724586248397827
			]
		},
		{
			"mesh":13,
			"name":"pole.002",
			"scale":[
				0.020852714776992798,
				0.8015422224998474,
				0.020852714776992798
			],
			"translation":[
				1.8618249893188477,
				0.7290372252464294,
				1.5724596977233887
			]
		},
		{
			"mesh":13,
			"name":"pole.001",
			"scale":[
				0.020852714776992798,
				0.8015422224998474,
				0.020852714776992798
			],
			"translation":[
				1.861825942993164,
				0.7290372252464294,
				-0.02305757999420166
			]
		},
		{
			"mesh":13,
			"name":"pole",
			"scale":[
				0.020852714776992798,
				0.8015422224998474,
				0.020852714776992798
			],
			"translation":[
				-0.2249423861503601,
				0.7290372252464294,
				-0.023058414459228516
			]
		},
		{
			"mesh":15,
			"name":"table",
			"scale":[
				0.6897252798080444,
				0.028027048334479332,
				0.29900211095809937
			],
			"translation":[
				0.6621286869049072,
				0.18787023425102234,
				1.5658860206604004
			]
		},
		{
			"mesh":16,
			"name":"bag",
			"rotation":[
				0.6382884979248047,
				-0.236176997423172,
				0.30428245663642883,
				0.666498601436615
			],
			"scale":[
				0.12598028779029846,
				0.12598028779029846,
				0.12598033249378204
			],
			"translation":[
				1.0627156496047974,
				0.2278197705745697,
				0.30846869945526123
			]
		},
		{
			"name":"Circle",
			"rotation":[
				0,
				-0.38268280029296875,
				0,
				0.9238798022270203
			],
			"scale":[
				0.16006886959075928,
				0.16006886959075928,
				0.16006886959075928
			],
			"translation":[
				1.687403678894043,
				1.2414977550506592,
				2.1483936309814453
			]
		},
		{
			"mesh":12,
			"name":"Cube.018",
			"rotation":[
				0.0007365318015217781,
				-0.7029896974563599,
				0.004636124707758427,
				0.711184561252594
			],
			"scale":[
				0.24766725301742554,
				0.09792295098304749,
				0.2087297886610031
			],
			"translation":[
				0.2854389548301697,
				0.029479682445526123,
				0.8179306387901306
			]
		},
		{
			"mesh":17,
			"name":"barrel",
			"rotation":[
				0,
				-0.707108199596405,
				0,
				0.7071053385734558
			],
			"scale":[
				0.12098647654056549,
				0.1209864616394043,
				0.12098647654056549
			],
			"translation":[
				1.4388813972473145,
				0.11463150382041931,
				0.3503167927265167
			]
		},
		{
			"mesh":18,
			"name":"COL1",
			"scale":[
				1.1881558895111084,
				1,
				0.9902560114860535
			],
			"translation":[
				0.7995035648345947,
				0.7690486907958984,
				0.7937816381454468
			]
		}
	],
	"materials":[
		{
			"doubleSided":true,
			"name":"table",
			"pbrMetallicRoughness":{
				"baseColorFactor":[
					0.21402908861637115,
					0.11718440055847168,
					0.046800047159194946,
					1
				],
				"metallicFactor":0,
				"roughnessFactor":0.5
			}
		},
		{
			"doubleSided":true,
			"name":"pack2",
			"pbrMetallicRoughness":{
				"baseColorFactor":[
					0.9874789714813232,
					1,
					0.28383737802505493,
					1
				],
				"metallicFactor":0,
				"roughnessFactor":0.5
			}
		},
		{
			"doubleSided":true,
			"name":"wooden board",
			"pbrMetallicRoughness":{
				"baseColorFactor":[
					0.5800180435180664,
					0.5925674438476562,
					0.552280604839325,
					1
				],
				"metallicFactor":0,
				"roughnessFactor":0.5
			}
		},
		{
			"doubleSided":true,
			"name":"tent cloth",
			"pbrMetallicRoughness":{
				"baseColorFactor":[
					0.273824542760849,
					0.06417907774448395,
					0.04672802984714508,
					1
				],
				"metallicFactor":0,
				"roughnessFactor":0.5
			}
		},
		{
			"doubleSided":true,
			"name":"bag",
			"pbrMetallicRoughness":{
				"baseColorFactor":[
					0.08520214259624481,
					0.09186830371618271,
					0.15742917358875275,
					1
				],
				"metallicFactor":0,
				"roughnessFactor":0.5
			}
		}
	],
	"meshes":[
		{
			"name":"Cube.016",
			"primitives":[
				{
					"attributes":{
						"POSITION":0,
						"NORMAL":1
					},
					"indices":2,
					"material":0
				}
			]
		},
		{
			"name":"Cube.015",
			"primitives":[
				{
					"attributes":{
						"POSITION":3,
						"NORMAL":4
					},
					"indices":2,
					"material":0
				}
			]
		},
		{
			"name":"Cube.014",
			"primitives":[
				{
					"attributes":{
						"POSITION":5,
						"NORMAL":6
					},
					"indices":2,
					"material":0
				}
			]
		},
		{
			"name":"Cube.013",
			"primitives":[
				{
					"attributes":{
						"POSITION":7,
						"NORMAL":8
					},
					"indices":2,
					"material":0
				}
			]
		},
		{
			"name":"Cube.012",
			"primitives":[
				{
					"attributes":{
						"POSITION":9,
						"NORMAL":10
					},
					"indices":2,
					"material":0
				}
			]
		},
		{
			"name":"Cube.011",
			"primitives":[
				{
					"attributes":{
						"POSITION":11,
						"NORMAL":12
					},
					"indices":2,
					"material":0
				}
			]
		},
		{
			"name":"Cube.010",
			"primitives":[
				{
					"attributes":{
						"POSITION":13,
						"NORMAL":14
					},
					"indices":2,
					"material":0
				}
			]
		},
		{
			"name":"Cube.009",
			"primitives":[
				{
					"attributes":{
						"POSITION":15,
						"NORMAL":16
					},
					"indices":2,
					"material":0
				}
			]
		},
		{
			"name":"Cube.008",
			"primitives":[
				{
					"attributes":{
						"POSITION":17,
						"NORMAL":18
					},
					"indices":2,
					"material":0
				}
			]
		},
		{
			"name":"Cube.007",
			"primitives":[
				{
					"attributes":{
						"POSITION":19,
						"NORMAL":20
					},
					"indices":2,
					"material":0
				}
			]
		},
		{
			"name":"Cube.006",
			"primitives":[
				{
					"attributes":{
						"POSITION":21,
						"NORMAL":22
					},
					"indices":2,
					"material":0
				}
			]
		},
		{
			"name":"Cube.005",
			"primitives":[
				{
					"attributes":{
						"POSITION":23,
						"NORMAL":24
					},
					"indices":2,
					"material":0
				}
			]
		},
		{
			"name":"Cube.004",
			"primitives":[
				{
					"attributes":{
						"POSITION":25,
						"NORMAL":26
					},
					"indices":27,
					"material":1
				}
			]
		},
		{
			"name":"Cylinder",
			"primitives":[
				{
					"attributes":{
						"POSITION":28,
						"NORMAL":29
					},
					"indices":30,
					"material":2
				}
			]
		},
		{
			"name":"Plane.001",
			"primitives":[
				{
					"attributes":{
						"POSITION":31,
						"NORMAL":32,
						"TEXCOORD_0":33
					},
					"indices":34,
					"material":3
				}
			]
		},
		{
			"name":"Cube.001",
			"primitives":[
				{
					"attributes":{
						"POSITION":35,
						"NORMAL":36
					},
					"indices":37,
					"material":2
				}
			]
		},
		{
			"name":"Plane.012",
			"primitives":[
				{
					"attributes":{
						"POSITION":38,
						"NORMAL":39
					},
					"indices":40,
					"material":4
				}
			]
		},
		{
			"name":"Cylinder.018",
			"primitives":[
				{
					"attributes":{
						"POSITION":41,
						"NORMAL":42
					},
					"indices":43,
					"material":2
				}
			]
		},
		{
			"name":"\u7acb\u65b9\u4f53",
			"primitives":[
				{
					"attributes":{
						"POSITION":44,
						"NORMAL":45,
						"TEXCOORD_0":46
					},
					"indices":47
				}
			]
		}
	],
	"accessors":[
		{
			"bufferView":0,
			"componentType":5126,
			"count":24,
			"max":[
				1.0000004768371582,
				1,
				1.0000005960464478
			],
			"min":[
				-1.0000003576278687,
				-1,
				-1.0000003576278687
			],
			"type":"VEC3"
		},
		{
			"bufferView":1,
			"componentType":5126,
			"count":24,
			"type":"VEC3"
		},
		{
			"bufferView":2,
			"componentType":5123,
			"count":36,
			"type":"SCALAR"
		},
		{
			"bufferView":3,
			"componentType":5126,
			"count":24,
			"max":[
				1.0000004768371582,
				1,
				1.0000005960464478
			],
			"min":[
				-1.0000003576278687,
				-1,
				-1.0000003576278687
			],
			"type":"VEC3"
		},
		{
			"bufferView":4,
			"componentType":5126,
			"count":24,
			"type":"VEC3"
		},
		{
			"bufferView":5,
			"componentType":5126,
			"count":24,
			"max":[
				1.0000004768371582,
				1,
				1.0000005960464478
			],
			"min":[
				-1.0000003576278687,
				-1,
				-1.0000003576278687
			],
			"type":"VEC3"
		},
		{
			"bufferView":6,
			"componentType":5126,
			"count":24,
			"type":"VEC3"
		},
		{
			"bufferView":7,
			"componentType":5126,
			"count":24,
			"max":[
				1.0000004768371582,
				1,
				1.0000005960464478
			],
			"min":[
				-1.0000003576278687,
				-1,
				-1.0000003576278687
			],
			"type":"VEC3"
		},
		{
			"bufferView":8,
			"componentType":5126,
			"count":24,
			"type":"VEC3"
		},
		{
			"bufferView":9,
			"componentType":5126,
			"count":24,
			"max":[
				1.0000004768371582,
				1,
				1.0000005960464478
			],
			"min":[
				-1.0000003576278687,
				-1,
				-1.0000003576278687
			],
			"type":"VEC3"
		},
		{
			"bufferView":10,
			"componentType":5126,
			"count":24,
			"type":"VEC3"
		},
		{
			"bufferView":11,
			"componentType":5126,
			"count":24,
			"max":[
				1.0000004768371582,
				1,
				1.0000005960464478
			],
			"min":[
				-1.0000003576278687,
				-1,
				-1.0000003576278687
			],
			"type":"VEC3"
		},
		{
			"bufferView":12,
			"componentType":5126,
			"count":24,
			"type":"VEC3"
		},
		{
			"bufferView":13,
			"componentType":5126,
			"count":24,
			"max":[
				1.0000004768371582,
				1,
				1.0000005960464478
			],
			"min":[
				-1.0000003576278687,
				-1,
				-1.0000003576278687
			],
			"type":"VEC3"
		},
		{
			"bufferView":14,
			"componentType":5126,
			"count":24,
			"type":"VEC3"
		},
		{
			"bufferView":15,
			"componentType":5126,
			"count":24,
			"max":[
				1.0000004768371582,
				1,
				1.0000005960464478
			],
			"min":[
				-1.0000003576278687,
				-1,
				-1.0000003576278687
			],
			"type":"VEC3"
		},
		{
			"bufferView":16,
			"componentType":5126,
			"count":24,
			"type":"VEC3"
		},
		{
			"bufferView":17,
			"componentType":5126,
			"count":24,
			"max":[
				1.0000004768371582,
				1,
				1.0000005960464478
			],
			"min":[
				-1.0000003576278687,
				-1,
				-1.0000003576278687
			],
			"type":"VEC3"
		},
		{
			"bufferView":18,
			"componentType":5126,
			"count":24,
			"type":"VEC3"
		},
		{
			"bufferView":19,
			"componentType":5126,
			"count":24,
			"max":[
				1.0000004768371582,
				1,
				1.0000005960464478
			],
			"min":[
				-1.0000003576278687,
				-1,
				-1.0000003576278687
			],
			"type":"VEC3"
		},
		{
			"bufferView":20,
			"componentType":5126,
			"count":24,
			"type":"VEC3"
		},
		{
			"bufferView":21,
			"componentType":5126,
			"count":24,
			"max":[
				1.0000004768371582,
				1,
				1.0000005960464478
			],
			"min":[
				-1.0000003576278687,
				-1,
				-1.0000003576278687
			],
			"type":"VEC3"
		},
		{
			"bufferView":22,
			"componentType":5126,
			"count":24,
			"type":"VEC3"
		},
		{
			"bufferView":23,
			"componentType":5126,
			"count":24,
			"max":[
				1.0000004768371582,
				1,
				1.0000005960464478
			],
			"min":[
				-1.0000003576278687,
				-1,
				-1.0000003576278687
			],
			"type":"VEC3"
		},
		{
			"bufferView":24,
			"componentType":5126,
			"count":24,
			"type":"VEC3"
		},
		{
			"bufferView":25,
			"componentType":5126,
			"count":32,
			"max":[
				1.0000004768371582,
				1,
				1.0000005960464478
			],
			"min":[
				-1.0000003576278687,
				-1,
				-1.0000003576278687
			],
			"type":"VEC3"
		},
		{
			"bufferView":26,
			"componentType":5126,
			"count":32,
			"type":"VEC3"
		},
		{
			"bufferView":27,
			"componentType":5123,
			"count":180,
			"type":"SCALAR"
		},
		{
			"bufferView":28,
			"componentType":5126,
			"count":194,
			"max":[
				1,
				1,
				1
			],
			"min":[
				-1,
				-1,
				-1
			],
			"type":"VEC3"
		},
		{
			"bufferView":29,
			"componentType":5126,
			"count":194,
			"type":"VEC3"
		},
		{
			"bufferView":30,
			"componentType":5123,
			"count":384,
			"type":"SCALAR"
		},
		{
			"bufferView":31,
			"componentType":5126,
			"count":22,
			"max":[
				0.9999999403953552,
				-0.0018215009476989508,
				0.7998551726341248
			],
			"min":[
				-1.0000001192092896,
				-0.833791196346283,
				-0.7927783727645874
			],
			"type":"VEC3"
		},
		{
			"bufferView":32,
			"componentType":5126,
			"count":22,
			"type":"VEC3"
		},
		{
			"bufferView":33,
			"componentType":5126,
			"count":22,
			"type":"VEC2"
		},
		{
			"bufferView":34,
			"componentType":5123,
			"count":48,
			"type":"SCALAR"
		},
		{
			"bufferView":35,
			"componentType":5126,
			"count":200,
			"max":[
				1.0000004768371582,
				1,
				1.0000005960464478
			],
			"min":[
				-1.0000003576278687,
				-9.394979476928711,
				-1.0000003576278687
			],
			"type":"VEC3"
		},
		{
			"bufferView":36,
			"componentType":5126,
			"count":200,
			"type":"VEC3"
		},
		{
			"bufferView":37,
			"componentType":5123,
			"count":516,
			"type":"SCALAR"
		},
		{
			"bufferView":38,
			"componentType":5126,
			"count":497,
			"max":[
				1.4630080461502075,
				1.5332475900650024,
				2.4829161167144775
			],
			"min":[
				-1.5569003820419312,
				-1.5332478284835815,
				-0.5270823240280151
			],
			"type":"VEC3"
		},
		{
			"bufferView":39,
			"componentType":5126,
			"count":497,
			"type":"VEC3"
		},
		{
			"bufferView":40,
			"componentType":5123,
			"count":2928,
			"type":"SCALAR"
		},
		{
			"bufferView":41,
			"componentType":5126,
			"count":2257,
			"max":[
				1.3403494358062744,
				1.5057642459869385,
				1.3403491973876953
			],
			"min":[
				-1.3403491973876953,
				-1.5057642459869385,
				-1.3403496742248535
			],
			"type":"VEC3"
		},
		{
			"bufferView":42,
			"componentType":5126,
			"count":2257,
			"type":"VEC3"
		},
		{
			"bufferView":43,
			"componentType":5123,
			"count":4416,
			"type":"SCALAR"
		},
		{
			"bufferView":44,
			"componentType":5126,
			"count":24,
			"max":[
				1,
				1,
				1
			],
			"min":[
				-1,
				-1,
				-1
			],
			"type":"VEC3"
		},
		{
			"bufferView":45,
			"componentType":5126,
			"count":24,
			"type":"VEC3"
		},
		{
			"bufferView":46,
			"componentType":5126,
			"count":24,
			"type":"VEC2"
		},
		{
			"bufferView":47,
			"componentType":5123,
			"count":36,
			"type":"SCALAR"
		}
	],
	"bufferViews":[
		{
			"buffer":0,
			"byteLength":288,
			"byteOffset":0,
			"target":34962
		},
		{
			"buffer":0,
			"byteLength":288,
			"byteOffset":288,
			"target":34962
		},
		{
			"buffer":0,
			"byteLength":72,
			"byteOffset":576,
			"target":34963
		},
		{
			"buffer":0,
			"byteLength":288,
			"byteOffset":648,
			"target":34962
		},
		{
			"buffer":0,
			"byteLength":288,
			"byteOffset":936,
			"target":34962
		},
		{
			"buffer":0,
			"byteLength":288,
			"byteOffset":1224,
			"target":34962
		},
		{
			"buffer":0,
			"byteLength":288,
			"byteOffset":1512,
			"target":34962
		},
		{
			"buffer":0,
			"byteLength":288,
			"byteOffset":1800,
			"target":34962
		},
		{
			"buffer":0,
			"byteLength":288,
			"byteOffset":2088,
			"target":34962
		},
		{
			"buffer":0,
			"byteLength":288,
			"byteOffset":2376,
			"target":34962
		},
		{
			"buffer":0,
			"byteLength":288,
			"byteOffset":2664,
			"target":34962
		},
		{
			"buffer":0,
			"byteLength":288,
			"byteOffset":2952,
			"target":34962
		},
		{
			"buffer":0,
			"byteLength":288,
			"byteOffset":3240,
			"target":34962
		},
		{
			"buffer":0,
			"byteLength":288,
			"byteOffset":3528,
			"target":34962
		},
		{
			"buffer":0,
			"byteLength":288,
			"byteOffset":3816,
			"target":34962
		},
		{
			"buffer":0,
			"byteLength":288,
			"byteOffset":4104,
			"target":34962
		},
		{
			"buffer":0,
			"byteLength":288,
			"byteOffset":4392,
			"target":34962
		},
		{
			"buffer":0,
			"byteLength":288,
			"byteOffset":4680,
			"target":34962
		},
		{
			"buffer":0,
			"byteLength":288,
			"byteOffset":4968,
			"target":34962
		},
		{
			"buffer":0,
			"byteLength":288,
			"byteOffset":5256,
			"target":34962
		},
		{
			"buffer":0,
			"byteLength":288,
			"byteOffset":5544,
			"target":34962
		},
		{
			"buffer":0,
			"byteLength":288,
			"byteOffset":5832,
			"target":34962
		},
		{
			"buffer":0,
			"byteLength":288,
			"byteOffset":6120,
			"target":34962
		},
		{
			"buffer":0,
			"byteLength":288,
			"byteOffset":6408,
			"target":34962
		},
		{
			"buffer":0,
			"byteLength":288,
			"byteOffset":6696,
			"target":34962
		},
		{
			"buffer":0,
			"byteLength":384,
			"byteOffset":6984,
			"target":34962
		},
		{
			"buffer":0,
			"byteLength":384,
			"byteOffset":7368,
			"target":34962
		},
		{
			"buffer":0,
			"byteLength":360,
			"byteOffset":7752,
			"target":34963
		},
		{
			"buffer":0,
			"byteLength":2328,
			"byteOffset":8112,
			"target":34962
		},
		{
			"buffer":0,
			"byteLength":2328,
			"byteOffset":10440,
			"target":34962
		},
		{
			"buffer":0,
			"byteLength":768,
			"byteOffset":12768,
			"target":34963
		},
		{
			"buffer":0,
			"byteLength":264,
			"byteOffset":13536,
			"target":34962
		},
		{
			"buffer":0,
			"byteLength":264,
			"byteOffset":13800,
			"target":34962
		},
		{
			"buffer":0,
			"byteLength":176,
			"byteOffset":14064,
			"target":34962
		},
		{
			"buffer":0,
			"byteLength":96,
			"byteOffset":14240,
			"target":34963
		},
		{
			"buffer":0,
			"byteLength":2400,
			"byteOffset":14336,
			"target":34962
		},
		{
			"buffer":0,
			"byteLength":2400,
			"byteOffset":16736,
			"target":34962
		},
		{
			"buffer":0,
			"byteLength":1032,
			"byteOffset":19136,
			"target":34963
		},
		{
			"buffer":0,
			"byteLength":5964,
			"byteOffset":20168,
			"target":34962
		},
		{
			"buffer":0,
			"byteLength":5964,
			"byteOffset":26132,
			"target":34962
		},
		{
			"buffer":0,
			"byteLength":5856,
			"byteOffset":32096,
			"target":34963
		},
		{
			"buffer":0,
			"byteLength":27084,
			"byteOffset":37952,
			"target":34962
		},
		{
			"buffer":0,
			"byteLength":27084,
			"byteOffset":65036,
			"target":34962
		},
		{
			"buffer":0,
			"byteLength":8832,
			"byteOffset":92120,
			"target":34963
		},
		{
			"buffer":0,
			"byteLength":288,
			"byteOffset":100952,
			"target":34962
		},
		{
			"buffer":0,
			"byteLength":288,
			"byteOffset":101240,
			"target":34962
		},
		{
			"buffer":0,
			"byteLength":192,
			"byteOffset":101528,
			"target":34962
		},
		{
			"buffer":0,
			"byteLength":72,
			"byteOffset":101720,
			"target":34963
		}
	],
	"buffers":[
		{
			"byteLength":101792,
			"uri":"beach_house_COL.bin"
		}
	]
}
