{
	"asset":{
		"generator":"Khronos glTF Blender I/O v4.1.63",
		"version":"2.0"
	},
	"scene":0,
	"scenes":[
		{
			"name":"Scene",
			"nodes":[
				0,
				1,
				2,
				3,
				4,
				5,
				6,
				7
			]
		}
	],
	"nodes":[
		{
			"mesh":0,
			"name":"toy_wagon",
			"rotation":[
				0.7071068286895752,
				0,
				0,
				0.7071068286895752
			],
			"translation":[
				0.4918653964996338,
				0,
				-0.38557928800582886
			]
		},
		{
			"mesh":1,
			"name":"toy_wagon_back_wheels",
			"rotation":[
				0.7071068286895752,
				0,
				0,
				0.7071068286895752
			],
			"translation":[
				0.4918653964996338,
				0,
				-0.38557928800582886
			]
		},
		{
			"mesh":2,
			"name":"toy_wagon_front_wheels",
			"rotation":[
				0.7071068286895752,
				0,
				0,
				0.7071068286895752
			],
			"translation":[
				0.4918653964996338,
				0,
				-0.38557928800582886
			]
		},
		{
			"mesh":3,
			"name":"toy_wagon_handle",
			"rotation":[
				0.7071068286895752,
				0,
				0,
				0.7071068286895752
			],
			"translation":[
				0.4918653964996338,
				0,
				-0.38557928800582886
			]
		},
		{
			"mesh":4,
			"name":"parasol",
			"rotation":[
				0.7071068286895752,
				0,
				0,
				0.7071068286895752
			]
		},
		{
			"mesh":5,
			"name":"cooler",
			"rotation":[
				0.6987572312355042,
				-0.10834338515996933,
				0.10834337025880814,
				0.6987572908401489
			],
			"translation":[
				0.4806845188140869,
				0,
				0.7182469367980957
			]
		},
		{
			"mesh":6,
			"name":"bench_03",
			"rotation":[
				0.16958783566951752,
				0.6864692568778992,
				-0.6864691972732544,
				0.16958783566951752
			],
			"translation":[
				-0.7161052227020264,
				0,
				0.3418041169643402
			]
		},
		{
			"mesh":7,
			"name":"COL1",
			"scale":[
				1.5129529237747192,
				1,
				1.5129529237747192
			],
			"translation":[
				0,
				0.9732393622398376,
				0
			]
		}
	],
	"materials":[
		{
			"doubleSided":true,
			"name":"\u30de\u30c6\u30ea\u30a2\u30eb.003",
			"pbrMetallicRoughness":{
				"baseColorTexture":{
					"index":0
				},
				"metallicFactor":0,
				"roughnessFactor":0.5
			}
		},
		{
			"doubleSided":true,
			"name":"\u30de\u30c6\u30ea\u30a2\u30eb.004",
			"pbrMetallicRoughness":{
				"baseColorFactor":[
					0.15592685341835022,
					0.06480419635772705,
					0.0009103548945859075,
					1
				],
				"metallicFactor":0,
				"roughnessFactor":0.5
			}
		},
		{
			"doubleSided":true,
			"name":"\u30de\u30c6\u30ea\u30a2\u30eb.006",
			"pbrMetallicRoughness":{
				"baseColorFactor":[
					0.14126592874526978,
					0.05448126420378685,
					0.0027310645673424006,
					1
				],
				"metallicFactor":0,
				"roughnessFactor":0.5
			}
		},
		{
			"doubleSided":true,
			"name":"\u30de\u30c6\u30ea\u30a2\u30eb.005",
			"pbrMetallicRoughness":{
				"baseColorTexture":{
					"index":1
				},
				"metallicFactor":0,
				"roughnessFactor":0.5
			}
		},
		{
			"doubleSided":true,
			"name":"\u30de\u30c6\u30ea\u30a2\u30eb",
			"pbrMetallicRoughness":{
				"baseColorTexture":{
					"index":2
				},
				"metallicFactor":0,
				"roughnessFactor":0.5
			}
		},
		{
			"doubleSided":true,
			"name":"\u30de\u30c6\u30ea\u30a2\u30eb.002",
			"pbrMetallicRoughness":{
				"baseColorTexture":{
					"index":3
				},
				"metallicFactor":0,
				"roughnessFactor":0.5
			}
		},
		{
			"doubleSided":true,
			"name":"\u30de\u30c6\u30ea\u30a2\u30eb.001",
			"pbrMetallicRoughness":{
				"baseColorTexture":{
					"index":4
				},
				"metallicFactor":0,
				"roughnessFactor":0.5
			}
		}
	],
	"meshes":[
		{
			"name":"toy_wagon",
			"primitives":[
				{
					"attributes":{
						"POSITION":0,
						"NORMAL":1,
						"TEXCOORD_0":2
					},
					"indices":3,
					"material":0
				}
			]
		},
		{
			"name":"toy_wagon_back_wheels",
			"primitives":[
				{
					"attributes":{
						"POSITION":4,
						"NORMAL":5,
						"TEXCOORD_0":6
					},
					"indices":7,
					"material":1
				}
			]
		},
		{
			"name":"toy_wagon_front_wheels",
			"primitives":[
				{
					"attributes":{
						"POSITION":8,
						"NORMAL":9,
						"TEXCOORD_0":10
					},
					"indices":11,
					"material":2
				}
			]
		},
		{
			"name":"toy_wagon_handle",
			"primitives":[
				{
					"attributes":{
						"POSITION":12,
						"NORMAL":13,
						"TEXCOORD_0":14
					},
					"indices":15,
					"material":3
				}
			]
		},
		{
			"name":"parasol",
			"primitives":[
				{
					"attributes":{
						"POSITION":16,
						"NORMAL":17,
						"TEXCOORD_0":18
					},
					"indices":19,
					"material":4
				}
			]
		},
		{
			"name":"cooler",
			"primitives":[
				{
					"attributes":{
						"POSITION":20,
						"NORMAL":21,
						"TEXCOORD_0":22
					},
					"indices":23,
					"material":5
				}
			]
		},
		{
			"name":"bench_03",
			"primitives":[
				{
					"attributes":{
						"POSITION":24,
						"NORMAL":25,
						"TEXCOORD_0":26
					},
					"indices":27,
					"material":6
				}
			]
		},
		{
			"name":"\u5186\u67f1",
			"primitives":[
				{
					"attributes":{
						"POSITION":28,
						"NORMAL":29,
						"TEXCOORD_0":30
					},
					"indices":31
				}
			]
		}
	],
	"textures":[
		{
			"sampler":0,
			"source":0
		},
		{
			"sampler":0,
			"source":1
		},
		{
			"sampler":0,
			"source":2
		},
		{
			"sampler":0,
			"source":3
		},
		{
			"sampler":0,
			"source":4
		}
	],
	"images":[
		{
			"mimeType":"image/png",
			"name":"toy_wagon.png.001",
			"uri":"textures/toy_wagon.png"
		},
		{
			"mimeType":"image/png",
			"name":"float_01.png",
			"uri":"textures/float_01.png"
		},
		{
			"mimeType":"image/png",
			"name":"parasol.png.001",
			"uri":"textures/parasol.png"
		},
		{
			"mimeType":"image/png",
			"name":"cooler.png.001",
			"uri":"textures/cooler.png"
		},
		{
			"mimeType":"image/png",
			"name":"bench_02.png.001",
			"uri":"textures/bench_02.png"
		}
	],
	"accessors":[
		{
			"bufferView":0,
			"componentType":5126,
			"count":156,
			"max":[
				0.23628699779510498,
				0.39552000164985657,
				-0.10571800172328949
			],
			"min":[
				-0.23628699779510498,
				-0.3653790056705475,
				-0.3039340078830719
			],
			"type":"VEC3"
		},
		{
			"bufferView":1,
			"componentType":5126,
			"count":156,
			"type":"VEC3"
		},
		{
			"bufferView":2,
			"componentType":5126,
			"count":156,
			"type":"VEC2"
		},
		{
			"bufferView":3,
			"componentType":5123,
			"count":582,
			"type":"SCALAR"
		},
		{
			"bufferView":4,
			"componentType":5126,
			"count":426,
			"max":[
				0.281497985124588,
				-0.1599999964237213,
				0
			],
			"min":[
				-0.281497985124588,
				-0.36000001430511475,
				-0.20000000298023224
			],
			"type":"VEC3"
		},
		{
			"bufferView":5,
			"componentType":5126,
			"count":426,
			"type":"VEC3"
		},
		{
			"bufferView":6,
			"componentType":5126,
			"count":426,
			"type":"VEC2"
		},
		{
			"bufferView":7,
			"componentType":5123,
			"count":1488,
			"type":"SCALAR"
		},
		{
			"bufferView":8,
			"componentType":5126,
			"count":426,
			"max":[
				0.281497985124588,
				0.3199999928474426,
				0
			],
			"min":[
				-0.281497985124588,
				0.11999999731779099,
				-0.20000000298023224
			],
			"type":"VEC3"
		},
		{
			"bufferView":9,
			"componentType":5126,
			"count":426,
			"type":"VEC3"
		},
		{
			"bufferView":10,
			"componentType":5126,
			"count":426,
			"type":"VEC2"
		},
		{
			"bufferView":11,
			"componentType":5123,
			"count":1488,
			"type":"SCALAR"
		},
		{
			"bufferView":12,
			"componentType":5126,
			"count":97,
			"max":[
				0.06674200296401978,
				0.7566909790039062,
				-0.2807849943637848
			],
			"min":[
				-0.06674200296401978,
				0.3557850122451782,
				-0.6816909909248352
			],
			"type":"VEC3"
		},
		{
			"bufferView":13,
			"componentType":5126,
			"count":97,
			"type":"VEC3"
		},
		{
			"bufferView":14,
			"componentType":5126,
			"count":97,
			"type":"VEC2"
		},
		{
			"bufferView":15,
			"componentType":5123,
			"count":264,
			"type":"SCALAR"
		},
		{
			"bufferView":16,
			"componentType":5126,
			"count":118,
			"max":[
				1.5099689960479736,
				1.5099689960479736,
				0
			],
			"min":[
				-1.5099689960479736,
				-1.5099689960479736,
				-2.609999895095825
			],
			"type":"VEC3"
		},
		{
			"bufferView":17,
			"componentType":5126,
			"count":118,
			"type":"VEC3"
		},
		{
			"bufferView":18,
			"componentType":5126,
			"count":118,
			"type":"VEC2"
		},
		{
			"bufferView":19,
			"componentType":5123,
			"count":432,
			"type":"SCALAR"
		},
		{
			"bufferView":20,
			"componentType":5126,
			"count":132,
			"max":[
				0.3199999928474426,
				0.20000000298023224,
				0
			],
			"min":[
				-0.3199999928474426,
				-0.20000000298023224,
				-0.5558769702911377
			],
			"type":"VEC3"
		},
		{
			"bufferView":21,
			"componentType":5126,
			"count":132,
			"type":"VEC3"
		},
		{
			"bufferView":22,
			"componentType":5126,
			"count":132,
			"type":"VEC2"
		},
		{
			"bufferView":23,
			"componentType":5123,
			"count":492,
			"type":"SCALAR"
		},
		{
			"bufferView":24,
			"componentType":5126,
			"count":172,
			"max":[
				0.7699999809265137,
				0.25736600160598755,
				0
			],
			"min":[
				-0.7699999809265137,
				-0.28563401103019714,
				-0.800000011920929
			],
			"type":"VEC3"
		},
		{
			"bufferView":25,
			"componentType":5126,
			"count":172,
			"type":"VEC3"
		},
		{
			"bufferView":26,
			"componentType":5126,
			"count":172,
			"type":"VEC2"
		},
		{
			"bufferView":27,
			"componentType":5123,
			"count":444,
			"type":"SCALAR"
		},
		{
			"bufferView":28,
			"componentType":5126,
			"count":192,
			"max":[
				1,
				1,
				1
			],
			"min":[
				-1,
				-1,
				-1
			],
			"type":"VEC3"
		},
		{
			"bufferView":29,
			"componentType":5126,
			"count":192,
			"type":"VEC3"
		},
		{
			"bufferView":30,
			"componentType":5126,
			"count":192,
			"type":"VEC2"
		},
		{
			"bufferView":31,
			"componentType":5123,
			"count":372,
			"type":"SCALAR"
		}
	],
	"bufferViews":[
		{
			"buffer":0,
			"byteLength":1872,
			"byteOffset":0,
			"target":34962
		},
		{
			"buffer":0,
			"byteLength":1872,
			"byteOffset":1872,
			"target":34962
		},
		{
			"buffer":0,
			"byteLength":1248,
			"byteOffset":3744,
			"target":34962
		},
		{
			"buffer":0,
			"byteLength":1164,
			"byteOffset":4992,
			"target":34963
		},
		{
			"buffer":0,
			"byteLength":5112,
			"byteOffset":6156,
			"target":34962
		},
		{
			"buffer":0,
			"byteLength":5112,
			"byteOffset":11268,
			"target":34962
		},
		{
			"buffer":0,
			"byteLength":3408,
			"byteOffset":16380,
			"target":34962
		},
		{
			"buffer":0,
			"byteLength":2976,
			"byteOffset":19788,
			"target":34963
		},
		{
			"buffer":0,
			"byteLength":5112,
			"byteOffset":22764,
			"target":34962
		},
		{
			"buffer":0,
			"byteLength":5112,
			"byteOffset":27876,
			"target":34962
		},
		{
			"buffer":0,
			"byteLength":3408,
			"byteOffset":32988,
			"target":34962
		},
		{
			"buffer":0,
			"byteLength":2976,
			"byteOffset":36396,
			"target":34963
		},
		{
			"buffer":0,
			"byteLength":1164,
			"byteOffset":39372,
			"target":34962
		},
		{
			"buffer":0,
			"byteLength":1164,
			"byteOffset":40536,
			"target":34962
		},
		{
			"buffer":0,
			"byteLength":776,
			"byteOffset":41700,
			"target":34962
		},
		{
			"buffer":0,
			"byteLength":528,
			"byteOffset":42476,
			"target":34963
		},
		{
			"buffer":0,
			"byteLength":1416,
			"byteOffset":43004,
			"target":34962
		},
		{
			"buffer":0,
			"byteLength":1416,
			"byteOffset":44420,
			"target":34962
		},
		{
			"buffer":0,
			"byteLength":944,
			"byteOffset":45836,
			"target":34962
		},
		{
			"buffer":0,
			"byteLength":864,
			"byteOffset":46780,
			"target":34963
		},
		{
			"buffer":0,
			"byteLength":1584,
			"byteOffset":47644,
			"target":34962
		},
		{
			"buffer":0,
			"byteLength":1584,
			"byteOffset":49228,
			"target":34962
		},
		{
			"buffer":0,
			"byteLength":1056,
			"byteOffset":50812,
			"target":34962
		},
		{
			"buffer":0,
			"byteLength":984,
			"byteOffset":51868,
			"target":34963
		},
		{
			"buffer":0,
			"byteLength":2064,
			"byteOffset":52852,
			"target":34962
		},
		{
			"buffer":0,
			"byteLength":2064,
			"byteOffset":54916,
			"target":34962
		},
		{
			"buffer":0,
			"byteLength":1376,
			"byteOffset":56980,
			"target":34962
		},
		{
			"buffer":0,
			"byteLength":888,
			"byteOffset":58356,
			"target":34963
		},
		{
			"buffer":0,
			"byteLength":2304,
			"byteOffset":59244,
			"target":34962
		},
		{
			"buffer":0,
			"byteLength":2304,
			"byteOffset":61548,
			"target":34962
		},
		{
			"buffer":0,
			"byteLength":1536,
			"byteOffset":63852,
			"target":34962
		},
		{
			"buffer":0,
			"byteLength":744,
			"byteOffset":65388,
			"target":34963
		}
	],
	"samplers":[
		{
			"magFilter":9729,
			"minFilter":9987
		}
	],
	"buffers":[
		{
			"byteLength":66132,
			"uri":"enemy1.bin"
		}
	]
}
