{
	"asset":{
		"generator":"Khronos glTF Blender I/O v4.1.63",
		"version":"2.0"
	},
	"scene":0,
	"scenes":[
		{
			"name":"Scene",
			"nodes":[
				0,
				1,
				2
			]
		}
	],
	"nodes":[
		{
			"mesh":0,
			"name":"MESH_T_00_9.001",
			"translation":[
				-0.19329720735549927,
				0.21695411205291748,
				0
			]
		},
		{
			"mesh":1,
			"name":"MESH_T_12.001",
			"translation":[
				-0.19329720735549927,
				0.21695411205291748,
				0
			]
		},
		{
			"mesh":2,
			"name":"SandMountain",
			"rotation":[
				0.70710688829422,
				0,
				0,
				0.7071066498756409
			],
			"scale":[
				0.050547823309898376,
				0.06636421382427216,
				0.0706213042140007
			]
		}
	],
	"materials":[
		{
			"alphaCutoff":0.33329999446868896,
			"alphaMode":"MASK",
			"name":"MAT_H_A1_MESH_T_00_9.001",
			"normalTexture":{
				"index":0
			},
			"pbrMetallicRoughness":{
				"baseColorTexture":{
					"index":1
				},
				"metallicRoughnessTexture":{
					"index":2
				}
			}
		},
		{
			"alphaCutoff":0.33329999446868896,
			"alphaMode":"MASK",
			"name":"MAT_T_00_MESH_T_12.001",
			"normalTexture":{
				"index":3
			},
			"pbrMetallicRoughness":{
				"baseColorTexture":{
					"index":4
				},
				"metallicRoughnessTexture":{
					"index":5
				}
			}
		},
		{
			"doubleSided":true,
			"name":"SandMountain",
			"pbrMetallicRoughness":{
				"baseColorFactor":[
					0.800000011920929,
					0.7382199764251709,
					0.49294599890708923,
					1
				],
				"metallicFactor":0
			}
		}
	],
	"meshes":[
		{
			"name":"MESH_T_00_9.001",
			"primitives":[
				{
					"attributes":{
						"POSITION":0,
						"NORMAL":1,
						"TEXCOORD_0":2
					},
					"indices":3,
					"material":0
				}
			]
		},
		{
			"name":"MESH_T_12.001",
			"primitives":[
				{
					"attributes":{
						"POSITION":4,
						"NORMAL":5,
						"TEXCOORD_0":6
					},
					"indices":7,
					"material":1
				}
			]
		},
		{
			"name":"SandMountain",
			"primitives":[
				{
					"attributes":{
						"POSITION":8,
						"NORMAL":9
					},
					"indices":10,
					"material":2
				}
			]
		}
	],
	"textures":[
		{
			"sampler":0,
			"source":0
		},
		{
			"sampler":0,
			"source":1
		},
		{
			"sampler":0,
			"source":2
		},
		{
			"sampler":0,
			"source":3
		},
		{
			"sampler":0,
			"source":4
		},
		{
			"sampler":0,
			"source":5
		}
	],
	"images":[
		{
			"mimeType":"image/png",
			"name":"TEX_H_A_01_N.png",
			"uri":"../../../../../../Users/kd134/Downloads/TEX_H_A_01_N.png"
		},
		{
			"mimeType":"image/png",
			"name":"MAT_H_A1_MESH_T_00_9_BaseColor.png",
			"uri":"../../../../../../Users/kd134/Downloads/MAT_H_A1_MESH_T_00_9_BaseColor.png"
		},
		{
			"mimeType":"image/png",
			"name":"MAT_H_A1_MESH_T_00_9_MetallicRoughness.png",
			"uri":"../../../../../../Users/kd134/Downloads/MAT_H_A1_MESH_T_00_9_MetallicRoughness.png"
		},
		{
			"mimeType":"image/png",
			"name":"TEX_T_00_N.png",
			"uri":"../../../../../../Users/kd134/Downloads/TEX_T_00_N.png"
		},
		{
			"mimeType":"image/png",
			"name":"MAT_T_00_MESH_T_12_BaseColor.png",
			"uri":"../../../../../../Users/kd134/Downloads/MAT_T_00_MESH_T_12_BaseColor.png"
		},
		{
			"mimeType":"image/png",
			"name":"MAT_T_00_MESH_T_12_MetallicRoughness.png",
			"uri":"../../../../../../Users/kd134/Downloads/MAT_T_00_MESH_T_12_MetallicRoughness.png"
		}
	],
	"accessors":[
		{
			"bufferView":0,
			"componentType":5126,
			"count":4752,
			"max":[
				0.31943073868751526,
				0.5644501447677612,
				0.9443852305412292
			],
			"min":[
				0.10869370400905609,
				0.2836490273475647,
				0.6319818496704102
			],
			"type":"VEC3"
		},
		{
			"bufferView":1,
			"componentType":5126,
			"count":4752,
			"type":"VEC3"
		},
		{
			"bufferView":2,
			"componentType":5126,
			"count":4752,
			"type":"VEC2"
		},
		{
			"bufferView":3,
			"componentType":5123,
			"count":24978,
			"type":"SCALAR"
		},
		{
			"bufferView":4,
			"componentType":5126,
			"count":3152,
			"max":[
				0.7680859565734863,
				0.379334956407547,
				0.8549202084541321
			],
			"min":[
				-0.33965593576431274,
				-0.0017125257290899754,
				0.3255799412727356
			],
			"type":"VEC3"
		},
		{
			"bufferView":5,
			"componentType":5126,
			"count":3152,
			"type":"VEC3"
		},
		{
			"bufferView":6,
			"componentType":5126,
			"count":3152,
			"type":"VEC2"
		},
		{
			"bufferView":7,
			"componentType":5123,
			"count":16878,
			"type":"SCALAR"
		},
		{
			"bufferView":8,
			"componentType":5126,
			"count":60689,
			"max":[
				20,
				20,
				0.048315998166799545
			],
			"min":[
				-20,
				-20,
				-9.320916175842285
			],
			"type":"VEC3"
		},
		{
			"bufferView":9,
			"componentType":5126,
			"count":60689,
			"type":"VEC3"
		},
		{
			"bufferView":10,
			"componentType":5123,
			"count":96774,
			"type":"SCALAR"
		}
	],
	"bufferViews":[
		{
			"buffer":0,
			"byteLength":57024,
			"byteOffset":0,
			"target":34962
		},
		{
			"buffer":0,
			"byteLength":57024,
			"byteOffset":57024,
			"target":34962
		},
		{
			"buffer":0,
			"byteLength":38016,
			"byteOffset":114048,
			"target":34962
		},
		{
			"buffer":0,
			"byteLength":49956,
			"byteOffset":152064,
			"target":34963
		},
		{
			"buffer":0,
			"byteLength":37824,
			"byteOffset":202020,
			"target":34962
		},
		{
			"buffer":0,
			"byteLength":37824,
			"byteOffset":239844,
			"target":34962
		},
		{
			"buffer":0,
			"byteLength":25216,
			"byteOffset":277668,
			"target":34962
		},
		{
			"buffer":0,
			"byteLength":33756,
			"byteOffset":302884,
			"target":34963
		},
		{
			"buffer":0,
			"byteLength":728268,
			"byteOffset":336640,
			"target":34962
		},
		{
			"buffer":0,
			"byteLength":728268,
			"byteOffset":1064908,
			"target":34962
		},
		{
			"buffer":0,
			"byteLength":193548,
			"byteOffset":1793176,
			"target":34963
		}
	],
	"samplers":[
		{
			"magFilter":9729,
			"minFilter":9987
		}
	],
	"buffers":[
		{
			"byteLength":1986724,
			"uri":"sandMan.bin"
		}
	]
}
